<?xml version="1.0" encoding="UTF-8"?> <svg xmlns="http://www.w3.org/2000/svg" width="231.379" height="244.959" viewBox="0 0 231.379 244.959"><defs><style>.a{fill:#f9fbf1;}.b{fill:none;}.c{fill:#4f8997;}.d{fill:#4f8998;}</style></defs><g transform="translate(-774.566 -1235.849)"><path class="a" d="M892.379,1480.808c-24.022,0-45.233-7.418-63.125-22.065a35.889,35.889,0,0,1-43.465-47.062,71.265,71.265,0,0,1,18.546-96.31,68.328,68.328,0,0,1,91.636-52.52,59.919,59.919,0,1,1,91.738,75.979q.254.621.5,1.24a103,103,0,0,1-95.827,140.738Z" transform="translate(0)"></path><g transform="translate(781.626 1242.85)"><path class="b" d="M919.365,1289.369l-.22.3c-.413.928-.8,1.872-1.149,2.836a43.245,43.245,0,0,0-2.584,14.782h-6.544a3.182,3.182,0,0,1-1.628,5.919h0a3.185,3.185,0,0,1-.753-6.281c0,.121-.012.244-.012.362h0a52.233,52.233,0,0,1,1.976-14.276h0c-.1.349-.168.7-.261,1.058-.273,1.049-.52,2.1-.727,3.167-.075.005-.146.022-.222.022h0a3.19,3.19,0,0,1-3.189-3.189h0a3.177,3.177,0,0,1,1.344-2.594,51.312,51.312,0,0,0-5.673-2.237,3.053,3.053,0,0,1-.456.045,3.159,3.159,0,0,1-2.077-.787,51.656,51.656,0,0,0-10.757-1.716,3.185,3.185,0,0,1-6.212.041,51.7,51.7,0,0,0-11.18,1.979,3.157,3.157,0,0,1-1.515.468,51.676,51.676,0,0,0-6.033,2.414,3.17,3.17,0,0,1,1.093,2.387h0a3.183,3.183,0,0,1-6.331.47,51.79,51.79,0,0,0-6.443,4.765,3.228,3.228,0,1,1-.868.753c-.032.028-.065.054-.1.081a51.962,51.962,0,0,0-8.291,9.646q.96-1.441,2.019-2.823a3.17,3.17,0,0,1,.87-.135h0a3.19,3.19,0,0,1,0,6.38h0a3.18,3.18,0,0,1-3.168-3,51.592,51.592,0,0,0-4.216,7.882c.39-.911.8-1.812,1.246-2.7a3.185,3.185,0,0,1-1.834,5.792,3.238,3.238,0,0,1-.606-.061c.149-.42.311-.836.47-1.252a51.524,51.524,0,0,0-2.091,6.769,63.414,63.414,0,0,1,24.346-4.835v1.535a3.186,3.186,0,0,1,4.993,2.627h0a3.186,3.186,0,0,1-4.993,2.628v2.148h0c-1.687,0-3.351.088-5,.238a3.189,3.189,0,1,1-3,.351,54.392,54.392,0,0,0-10.951,2.789,3.162,3.162,0,0,1-5.215,2.25q-2.413,1.191-4.688,2.6a3.188,3.188,0,1,1-4.418,3.056,55.231,55.231,0,0,0-5.421,4.73,3.349,3.349,0,1,1-2.522,2.711,54.981,54.981,0,0,0-4.111,5.29,3.185,3.185,0,0,1,2.474,3.1h0a3.191,3.191,0,0,1-3.19,3.189h0a3.166,3.166,0,0,1-2.4-1.114,54.688,54.688,0,0,0-2.442,5.275,3.149,3.149,0,0,1-1.136,3.1,53.748,53.748,0,0,0-2.8,17.253,56.212,56.212,0,0,0,.339,6.167c.105.948.244,1.887.4,2.823.024,0,.048-.007.072-.007a3.187,3.187,0,0,1,1.289,6.1c-.458-1.608-.851-3.237-1.16-4.888a54.051,54.051,0,0,0,8.436,20.473,28.126,28.126,0,0,1,4.255-3.159,3.163,3.163,0,0,1,4.558-2.225,27.685,27.685,0,0,0-2.964,1.342,27.86,27.86,0,0,1,12.883-3.152h.778l.732.263c2.793,1,10.987,3.6,15.266,3.6a32.154,32.154,0,0,0,30.184-21.173,3.175,3.175,0,0,1-2.494,1.221h0a3.191,3.191,0,0,1-3.189-3.19h0a3.187,3.187,0,0,1,3.186-3.189h0a3.183,3.183,0,0,1,3.174,3.03,32.011,32.011,0,0,0,1.237-8.8,36.649,36.649,0,0,0-1.288-7.592,3.179,3.179,0,0,1-3.129,3.8h0a3.19,3.19,0,1,1,0-6.38h0a3.188,3.188,0,0,1,3.1,2.459c-.3-1.175-.586-2.177-.774-2.79l-2-6.531,4.866.558a3.167,3.167,0,0,1,5.832.611c-.749-.067-1.493-.146-2.239-.225a164.331,164.331,0,0,0,16.989.9,161.89,161.89,0,0,0,78.582-20.3l-.009-.016a43.418,43.418,0,0,0,22.077-32.308,3.179,3.179,0,0,1,.371-6.039,43.3,43.3,0,0,0-1.383-10.556,3.175,3.175,0,0,1-1.009-2.317h0a3.181,3.181,0,0,1,.087-.717,43.032,43.032,0,0,0-2.269-5.426,3.184,3.184,0,1,1-2.924-4.989,43.676,43.676,0,0,0-5.209-6.295c.214.214.418.439.628.657a3.158,3.158,0,0,1,.119.82,3.221,3.221,0,1,1-2.468-3.1,43.7,43.7,0,0,0-5.569-4.231,3.19,3.19,0,1,1-5.346-2.924,43.1,43.1,0,0,0-18.012-3.933c-.354,0-.7.03-1.058.039a3.176,3.176,0,0,1-4.946.391,43.438,43.438,0,0,0-18.94,7.521,3.181,3.181,0,0,1-1.776,1.314,43.585,43.585,0,0,0-5.723,5.361,3.175,3.175,0,0,1-2.129,2.578,43.006,43.006,0,0,0-4.906,8.192Zm54.858,36.6a3.192,3.192,0,0,1-3.191,3.189h0a3.189,3.189,0,0,1-3.188-3.189h0a3.188,3.188,0,0,1,3.186-3.19h0A3.192,3.192,0,0,1,974.223,1325.969Zm-15.951,0a3.19,3.19,0,0,1-6.379,0h0a3.19,3.19,0,1,1,6.379,0Zm-31.9,31.9a3.189,3.189,0,1,1-6.378,0h0a3.189,3.189,0,1,1,6.378,0Zm-15.951,0a3.191,3.191,0,0,1-3.19,3.189h0a3.189,3.189,0,0,1-3.188-3.189h0a3.188,3.188,0,0,1,3.186-3.19h0A3.19,3.19,0,0,1,910.419,1357.871Zm-15.951,0a3.189,3.189,0,1,1-6.378,0h0a3.189,3.189,0,1,1,6.378,0Zm-27.1,11.161a3.189,3.189,0,1,1,3.188-3.19A3.189,3.189,0,0,1,867.367,1369.032Zm3.188,12.759a3.189,3.189,0,1,1-3.189-3.189h0A3.189,3.189,0,0,1,870.555,1381.792Zm-7.975-23.926a3.189,3.189,0,0,1-6.379,0h0a3.189,3.189,0,0,1,6.379,0Zm-7.975,39.877a3.19,3.19,0,1,1-3.191-3.19,3.191,3.191,0,0,1,3.191,3.19v0Zm-7.975-7.975a3.193,3.193,0,0,1-3.191,3.19h0a3.19,3.19,0,0,1-3.188-3.19h0a3.188,3.188,0,0,1,3.188-3.189h0A3.19,3.19,0,0,1,846.63,1389.767Zm-15.951,0a3.19,3.19,0,0,1-6.379,0h0a3.19,3.19,0,0,1,6.379,0ZM819.515,1378.6a3.189,3.189,0,1,1-3.191,3.19,3.189,3.189,0,0,1,3.191-3.19h0Zm-3.191-12.76a3.191,3.191,0,1,1,3.192,3.19h0a3.19,3.19,0,0,1-3.183-3.191Zm14.354,39.877a2.374,2.374,0,1,1,.007,0Zm-6.379-31.9a2.719,2.719,0,1,0,.008,0Zm27.112-4.785a3.959,3.959,0,1,1,.007,0Zm3.191,12.759a2.35,2.35,0,1,1,.007,0v0Zm-7.975-23.926a3.19,3.19,0,0,1-3.19,3.189h0a3.189,3.189,0,0,1-3.188-3.189h0a3.187,3.187,0,0,1,3.186-3.189h0A3.19,3.19,0,0,1,846.627,1357.867Zm0,15.951a3.192,3.192,0,0,1-3.19,3.192h0a3.19,3.19,0,0,1,0-6.38h0a3.19,3.19,0,0,1,3.2,3.183v.006Zm-7.975-7.975a3.19,3.19,0,1,1-3.189-3.189h0a3.189,3.189,0,0,1,3.2,3.184v.005Zm-3.189,12.76a3.189,3.189,0,1,1-3.191,3.189,3.189,3.189,0,0,1,3.191-3.189h0Zm0,15.951a3.189,3.189,0,1,1-3.191,3.19,3.189,3.189,0,0,1,3.191-3.19h.01Zm4.785,11.164a3.19,3.19,0,0,1,3.188-3.19h0a3.19,3.19,0,1,1,0,6.38h0a3.19,3.19,0,0,1-3.186-3.191Zm22.328-31.9a2.456,2.456,0,1,1,.007,0v0Zm4.784-27.114a3.189,3.189,0,1,1-3.191,3.19,3.189,3.189,0,0,1,3.191-3.19h0Zm-3.183-12.758a3.189,3.189,0,1,1,3.191,3.189A3.189,3.189,0,0,1,864.177,1333.944Zm35.088-19.14a3.19,3.19,0,1,1-3.191,3.191h0a3.189,3.189,0,0,1,3.188-3.189h0Zm-3.191-12.76a3.19,3.19,0,1,1,3.191,3.19,3.19,3.19,0,0,1-3.191-3.19h0Zm3.191,35.089a3.189,3.189,0,1,1,3.188-3.19h0a3.188,3.188,0,0,1-3.188,3.189h0Zm3.188,12.76a3.19,3.19,0,1,1-3.188-3.191,3.19,3.19,0,0,1,3.188,3.191Zm-15.945-47.849a3.191,3.191,0,1,1-3.192-3.189h0a3.191,3.191,0,0,1,3.19,3.189Zm-3.191,12.76a3.19,3.19,0,1,1-3.19,3.191h0a3.192,3.192,0,0,1,3.19-3.189Zm7.975,7.975a3.191,3.191,0,0,1,3.191,3.19h0a3.19,3.19,0,0,1-6.379,0h0a3.188,3.188,0,0,1,3.186-3.19h0Zm-3.189-12.76a3.189,3.189,0,1,1,3.188,3.191,3.189,3.189,0,0,1-3.188-3.191Zm6.378,31.9a3.189,3.189,0,1,1-3.19-3.19,3.19,3.19,0,0,1,3.19,3.19Zm-7.975-7.976a3.191,3.191,0,1,1-3.192-3.19h0a3.191,3.191,0,0,1,3.192,3.189Zm-3.191,12.759a3.189,3.189,0,1,1-3.19,3.19,3.19,3.19,0,0,1,3.19-3.19h0Zm20.733-4.785a3.19,3.19,0,0,1,3.188-3.19h0a3.19,3.19,0,1,1,0,6.38h0a3.189,3.189,0,0,1-3.188-3.191Zm14.354-7.975a3.19,3.19,0,1,1-3.191-3.19,3.19,3.19,0,0,1,3.191,3.19Zm-3.191,12.759a3.189,3.189,0,1,1-3.19,3.19,3.19,3.19,0,0,1,3.19-3.19ZM920,1341.92a3.189,3.189,0,1,1,3.188,3.19,3.188,3.188,0,0,1-3.188-3.19Zm11.162,4.784a3.189,3.189,0,1,1-3.19,3.19,3.189,3.189,0,0,1,3.19-3.19h0Zm-3.19-12.759a3.189,3.189,0,1,1,3.19,3.19,3.189,3.189,0,0,1-3.19-3.19Zm15.951,15.951a3.191,3.191,0,1,1,3.192,3.19h0a3.189,3.189,0,0,1-3.189-3.19v0Zm3.189-12.76a3.189,3.189,0,1,1,3.192-3.189,3.19,3.19,0,0,1-3.192,3.189h0Zm0-22.329a3.19,3.19,0,1,1-3.189,3.191h0a3.191,3.191,0,0,1,3.189-3.192Zm-3.189-12.76a3.191,3.191,0,1,1,3.192,3.19h0a3.19,3.19,0,0,1-3.189-3.191v0Zm11.164,43.064a3.191,3.191,0,1,1,3.19-3.192h0a3.191,3.191,0,0,1-3.192,3.189h0Zm-3.189-35.09a3.19,3.19,0,1,1,3.189,3.191,3.19,3.19,0,0,1-3.189-3.191v0Zm11.163,4.785a3.19,3.19,0,1,1-3.19,3.19h0a3.189,3.189,0,0,1,3.185-3.192h0Zm-3.19-12.76a3.189,3.189,0,1,1,3.19,3.19,3.189,3.189,0,0,1-3.19-3.19v0Zm3.19,28.709a3.189,3.189,0,1,1-3.19,3.19,3.189,3.189,0,0,1,3.19-3.19h0Zm4.786,11.165a3.189,3.189,0,0,1,3.188-3.19h0a3.19,3.19,0,0,1,0,6.381h0a3.19,3.19,0,0,1-3.188-3.192h0Zm0-31.9a3.189,3.189,0,0,1,3.188-3.19h0a3.19,3.19,0,1,1,.006,6.38h-.006a3.19,3.19,0,0,1-3.188-3.191Zm11.164,4.785a3.19,3.19,0,1,1-3.189,3.191v0a3.191,3.191,0,0,1,3.189-3.189Zm-3.189-12.76a3.19,3.19,0,1,1,3.19,3.19h0a3.19,3.19,0,0,1-3.189-3.19Zm-1.595-7.975a3.192,3.192,0,0,1-3.191,3.189h0a3.189,3.189,0,0,1-3.188-3.189h0a3.187,3.187,0,0,1,3.186-3.189h0a3.19,3.19,0,0,1,3.191,3.189Zm-15.951,0a3.19,3.19,0,0,1-6.379,0h0a3.19,3.19,0,0,1,6.379,0Zm-15.951,0a3.19,3.19,0,0,1-3.19,3.189h0a3.19,3.19,0,0,1-3.188-3.189h0a3.187,3.187,0,0,1,3.186-3.189h0a3.189,3.189,0,0,1,3.19,3.188Zm0,15.951a3.192,3.192,0,0,1-3.19,3.191h0a3.19,3.19,0,0,1,0-6.381h0a3.191,3.191,0,0,1,3.194,3.187v0Zm-7.975-7.976a3.189,3.189,0,1,1-3.189-3.189h0a3.189,3.189,0,0,1,3.192,3.186v0Zm-3.188,12.76a3.19,3.19,0,1,1-3.191,3.189,3.19,3.19,0,0,1,3.191-3.189h0Zm7.975,7.975h0a3.191,3.191,0,0,1,3.19,3.19h0a3.191,3.191,0,0,1-3.19,3.189h0a3.19,3.19,0,0,1-3.189-3.189h0a3.187,3.187,0,0,1,3.186-3.19h0Zm3.19,19.14a3.191,3.191,0,0,1-3.19,3.19h0a3.191,3.191,0,0,1,0-6.381h0a3.19,3.19,0,0,1,3.192,3.189h0Zm-15.951-15.951a3.189,3.189,0,0,1-6.379,0h0a3.189,3.189,0,1,1,6.379,0Zm-3.19-12.759a3.19,3.19,0,1,1,3.19-3.191,3.19,3.19,0,0,1-3.19,3.191Zm-6.98-14.182a3.174,3.174,0,0,1-.742,6.18,43.556,43.556,0,0,1,.746-6.179Zm-.994,15.776a3.19,3.19,0,1,1-3.19,3.191v0a3.192,3.192,0,0,1,3.194-3.189h0Zm-7.975,7.976h0a3.19,3.19,0,0,1,3.19,3.19h0a3.192,3.192,0,0,1-3.19,3.189h0a3.191,3.191,0,0,1-3.189-3.189h0a3.189,3.189,0,0,1,3.188-3.19h0Zm-15.951-31.9a3.189,3.189,0,0,1,3.19,3.189h0a3.189,3.189,0,1,1-6.379,0h0a3.187,3.187,0,0,1,3.189-3.186h.007Zm-15.951,0h0a3.189,3.189,0,0,1,3.19,3.189h0a3.19,3.19,0,0,1-3.19,3.19h0a3.189,3.189,0,0,1-3.188-3.19h0a3.187,3.187,0,0,1,3.189-3.186h.009Zm3.19,19.139a3.191,3.191,0,0,1-3.19,3.191h0a3.19,3.19,0,0,1,0-6.381h0a3.19,3.19,0,0,1,3.2,3.18v.013Zm-11.164-4.784a2.565,2.565,0,1,1,.01,0Zm3.188,12.759a3.189,3.189,0,1,1-3.189-3.189h0a3.19,3.19,0,0,1,3.2,3.182v.01Zm-19.137-3.189a3.19,3.19,0,1,1-3.189,3.191h0a3.191,3.191,0,0,1,3.2-3.187h0Zm-7.975,8.6q-1.272.289-2.523.627a3.173,3.173,0,0,1,2.523-1.257h0a3.171,3.171,0,0,1,1.368.319c-.449.1-.9.21-1.357.313Zm15.95-10.2a2.535,2.535,0,1,1,.009,0Zm15.951,9.568h0a3.19,3.19,0,0,1,3.19,3.19h0a3.191,3.191,0,0,1-3.19,3.189h0a3.189,3.189,0,0,1-3.188-3.189h0a3.187,3.187,0,0,1,3.19-3.186h0Zm3.19,19.139a3.191,3.191,0,0,1-3.19,3.191h0a3.191,3.191,0,0,1,0-6.381h0a3.19,3.19,0,0,1,3.2,3.186v.008Zm-19.138-3.19a3.191,3.191,0,1,1-3.188,3.194v0a3.191,3.191,0,0,1,3.194-3.187Zm-7.975,7.976a3.189,3.189,0,1,1-3.19,3.19,3.189,3.189,0,0,1,3.19-3.19h0Zm-7.975-7.976h0a3.19,3.19,0,0,1,0,6.381h0a3.191,3.191,0,0,1,0-6.381Zm-7.976,7.976a3.189,3.189,0,1,1-3.191,3.19,3.189,3.189,0,0,1,3.191-3.19h.007Zm-7.975,7.976a3.188,3.188,0,0,1,3.19,3.188h0a3.189,3.189,0,1,1-6.378,0h0a3.188,3.188,0,0,1,3.188-3.187h.01Zm-15.951,15.951h0a3.19,3.19,0,1,1,0,6.38h0a3.19,3.19,0,0,1,0-6.38Zm-8.763,14.242a55.183,55.183,0,0,1,.436-6.233,3.068,3.068,0,0,1,.353-.036,3.19,3.19,0,1,1-.789,6.266Zm8.764,24.035h0a3.191,3.191,0,0,1,0-6.381h0a3.19,3.19,0,1,1,0,6.38Zm0-15.95h0a3.191,3.191,0,0,1-3.188-3.191h0a3.187,3.187,0,0,1,3.186-3.189h0a3.19,3.19,0,0,1,3.19,3.189h0a3.192,3.192,0,0,1-3.179,3.193Zm4.784,4.785a3.191,3.191,0,1,1,3.193,3.189h0a3.191,3.191,0,0,1-3.179-3.186Zm32.012,15.147a3.174,3.174,0,0,1,5.894-.665,32.057,32.057,0,0,1-5.883.668Zm7.861-7.173a6.736,6.736,0,1,0,.008,0Zm11.162-4.785a3.189,3.189,0,1,1,3.189-3.19h0a3.19,3.19,0,0,1-3.178,3.193Zm-4.784-11.165a3.189,3.189,0,1,1-6.378,0h0a3.189,3.189,0,0,1,6.378,0Zm12.757-28.709h0a3.189,3.189,0,0,1-3.188-3.19h0a3.187,3.187,0,0,1,3.186-3.189h0a3.189,3.189,0,0,1,3.19,3.189h0a3.19,3.19,0,0,1-3.179,3.193Zm25.77,4.549c-1.666,0-3.337-.03-5.005-.081a3.174,3.174,0,0,1,6.322.06c-.428.006-.866.024-1.305.024Zm10.975-.38a3.183,3.183,0,0,1,6.1-.536q-3.023.327-6.084.539Zm17.523-2.155a3.166,3.166,0,0,1,1.552-.419,3.311,3.311,0,0,1,.527.053c-.68.136-1.375.246-2.07.369Zm9.679-2.03c-.052,0-.1.015-.153.015h0a3.189,3.189,0,0,1-3.188-3.19h0a3.187,3.187,0,0,1,3.186-3.189h0a3.189,3.189,0,0,1,3.19,3.189h0a3.184,3.184,0,0,1-1.857,2.889c-.381.1-.775.193-1.169.288Zm12.65-3.591a3.174,3.174,0,0,1,5.354-1.877q-2.645.987-5.343,1.881Zm11.989-4.5a3.127,3.127,0,0,1-.869.135,3.23,3.23,0,1,1,1.557-.422c-.218.1-.447.194-.677.286ZM979,1337.13a2.6,2.6,0,1,1,.011,0Zm4.872,5.5a3.174,3.174,0,0,1,4.424-3.612,43.333,43.333,0,0,1-4.412,3.615Zm8.118-7.507a3.177,3.177,0,0,1,2.959-4.371c.081,0,.163.019.244.024a43.375,43.375,0,0,1-3.192,4.345Zm-1.826-9.156a3.189,3.189,0,1,1-6.378,0h0a3.189,3.189,0,0,1,6.378,0Zm-6.378-15.951a5.731,5.731,0,1,0,.011,0Zm11.163,11.165a3.19,3.19,0,1,1,3.188-3.192v0a3.19,3.19,0,0,1-3.176,3.194Zm0-15.951a3.189,3.189,0,1,1,3.188-3.19h0a3.19,3.19,0,0,1-3.176,3.2Zm-7.975-14.354a3.189,3.189,0,0,1,3.19,3.188h0a3.19,3.19,0,0,1-6.379,0h0a3.188,3.188,0,0,1,3.192-3.184h.01Zm-7.975-7.975a3.189,3.189,0,1,1-3.189,3.189h0a3.191,3.191,0,0,1,3.2-3.183h0Zm-7.975-7.976h0a3.19,3.19,0,0,1,.006,6.38h-.006a3.191,3.191,0,0,1,0-6.381Zm-7.975-7.975a2.259,2.259,0,1,0,.007.008h.006Zm0,15.951a2.306,2.306,0,1,0,0,.006h.009Zm-7.975-7.976a3.191,3.191,0,1,1-3.189,3.193v0a3.191,3.191,0,0,1,3.2-3.184h0Zm-7.975-7.975a2.3,2.3,0,1,0,.011.008h.006Zm0,15.951a2.308,2.308,0,1,0,.01.006h.008Zm-7.975-7.976h0a3.19,3.19,0,0,1,0,6.38h0a3.191,3.191,0,0,1,0-6.381Zm-7.975,7.976a2.426,2.426,0,1,0,0,.006h.018Zm-7.975,7.975a3.189,3.189,0,0,1,3.19,3.188h0a3.189,3.189,0,0,1-6.378,0h0a3.188,3.188,0,0,1,3.193-3.184h.016Z" transform="translate(-793.819 -1254.99)"></path><path class="b" d="M1030.367,1588.147a8.944,8.944,0,0,0-14.706,6.489c3.212,1.445,6.918,1.477,11.038.081a31.453,31.453,0,0,0,6.243-2.956A8.884,8.884,0,0,0,1030.367,1588.147Z" transform="translate(-885.845 -1394.227)"></path><path class="b" d="M998.333,1458.366a86.43,86.43,0,0,0-6.022-31.844q-.959-2.433-2.072-4.819A170.82,170.82,0,0,1,908,1442.745c-4.42,0-8.862-.17-13.271-.509a35.348,35.348,0,0,1,.852,6.768,41.087,41.087,0,0,1-41.041,41.041c-5.82,0-14.677-2.878-17.5-3.849a19.067,19.067,0,1,0,8.268,36.568,18.577,18.577,0,0,0,1.673-.822c.269-.149.537-.306.8-.469l2.946-1.823,2.5,2.4c16.024,15.371,35.623,23.166,58.254,23.166a86.851,86.851,0,0,0,86.849-86.849Zm-41,23.143-6.6-6.022,7.923-8.684-11.231-1.336,1.058-8.876,19.863,2.36,2.774,7.45Zm21.022-44.537c3.719-.578,7.516,3.978,8.479,10.179s-1.27,11.694-4.99,12.272c-2.653.412-5.344-1.79-7.02-5.334l3.337-5.8-4.989-2.865C973.426,1440.926,975.432,1437.426,978.36,1436.971Zm-52.847,28.737c.963,6.2-1.271,11.694-4.99,12.273-2.654.411-5.345-1.791-7.02-5.334l3.337-5.8-4.99-2.865c.253-4.493,2.259-7.992,5.187-8.447C920.752,1454.952,924.548,1459.509,925.513,1465.709Zm46.693,31.481a38.412,38.412,0,0,1-1,6.5c-3.02,11.933-14.35,23.691-26.937,27.958a26.409,26.409,0,0,1-8.484,1.475,20.928,20.928,0,0,1-11.451-3.331c-6.561-4.205-10.887-12.009-11.871-21.411-.6-5.7.225-13.835,4.314-19.548,4.232-5.914,10.84-7.523,18.129-4.42,6.194,2.638,16.445,4.461,24.315,2.227.488-.139.961-.291,1.415-.438,2.14-.691,4.8-1.552,7.6.145,2.956,1.8,4.293,5.444,3.968,10.842Z" transform="translate(-800.71 -1323.189)"></path><path class="b" d="M1040.867,1547.162c-.5.163-1.068.345-1.709.526-9.889,2.805-22.147.725-29.909-2.582-2.6-1.107-5.584-1.79-7.99,1.576-2.2,3.081-3.324,8.618-2.785,13.777a24.915,24.915,0,0,0,2.8,9.326,17.372,17.372,0,0,1,30.96-1.423c4.12-4.056,7.243-8.957,8.464-13.786a23.36,23.36,0,0,0,.7-7.582Z" transform="translate(-878.357 -1376.141)"></path><path class="c" d="M1150.044,1316.472c-.077-.244-.162-.479-.244-.717a3.2,3.2,0,0,0-.087.717Z" transform="translate(-943.792 -1277.391)"></path><path class="c" d="M1128,1314.59a3.189,3.189,0,1,0-6.379,0Z" transform="translate(-931.649 -1275.509)"></path><path class="c" d="M1121.623,1286.495a3.189,3.189,0,0,0,6.378,0,3.148,3.148,0,0,0-.119-.82c-.21-.218-.414-.444-.628-.658-.557-.557-1.133-1.1-1.72-1.623a3.163,3.163,0,0,0-3.91,3.1Z" transform="translate(-931.649 -1263.363)"></path><path class="c" d="M1110.765,1303.732a3.19,3.19,0,1,0-3.19-3.19h0A3.191,3.191,0,0,0,1110.765,1303.732Z" transform="translate(-925.577 -1269.437)"></path><path class="c" d="M1135.665,1300.567a3.185,3.185,0,0,0,5.794,1.832,43.51,43.51,0,0,0-2.924-4.99A3.179,3.179,0,0,0,1135.665,1300.567Z" transform="translate(-937.719 -1269.461)"></path><path class="c" d="M1107.576,1273.138a3.19,3.19,0,0,0,6.316.639,43.373,43.373,0,0,0-5.346-2.924A3.176,3.176,0,0,0,1107.576,1273.138Z" transform="translate(-925.577 -1257.981)"></path><path class="c" d="M1099.145,1311.4v3.189h3.191a3.189,3.189,0,0,0-3.191-3.189Z" transform="translate(-921.932 -1275.509)"></path><path class="c" d="M1102.337,1286.5a3.191,3.191,0,0,0-3.191-3.189v6.38A3.192,3.192,0,0,0,1102.337,1286.5Z" transform="translate(-921.933 -1263.365)"></path><path class="c" d="M1124.813,1367.586a3.189,3.189,0,0,0-3.189,3.188H1128A3.19,3.19,0,0,0,1124.813,1367.586Z" transform="translate(-931.65 -1299.796)"></path><path class="c" d="M1149.714,1342.768a3.185,3.185,0,0,0,2.019,2.962,43.391,43.391,0,0,0,.38-5.69c0-.117-.008-.232-.009-.349A3.181,3.181,0,0,0,1149.714,1342.768Z" transform="translate(-943.792 -1287.739)"></path><path class="c" d="M1124.813,1345.873a3.19,3.19,0,1,0-3.189-3.192h0A3.192,3.192,0,0,0,1124.813,1345.873Z" transform="translate(-931.65 -1287.653)"></path><path class="c" d="M1110.765,1359.918a3.19,3.19,0,1,0-3.19-3.191h0A3.191,3.191,0,0,0,1110.765,1359.918Z" transform="translate(-925.577 -1293.724)"></path><path class="c" d="M1138.858,1353.539a3.19,3.19,0,1,0,3.189,3.192v0A3.19,3.19,0,0,0,1138.858,1353.539Z" transform="translate(-937.719 -1293.724)"></path><path class="c" d="M1110.765,1331.827a3.189,3.189,0,1,0-3.19-3.19A3.189,3.189,0,0,0,1110.765,1331.827Z" transform="translate(-925.577 -1281.581)"></path><path class="c" d="M1138.859,1325.446a3.189,3.189,0,1,0,3.189,3.191v0A3.191,3.191,0,0,0,1138.859,1325.446Z" transform="translate(-937.721 -1281.58)"></path><path class="c" d="M1099.145,1367.586v3.189h3.191A3.19,3.19,0,0,0,1099.145,1367.586Z" transform="translate(-921.932 -1299.796)"></path><path class="c" d="M1102.337,1342.683a3.191,3.191,0,0,0-3.191-3.189v6.38A3.192,3.192,0,0,0,1102.337,1342.683Z" transform="translate(-921.933 -1287.653)"></path><path class="c" d="M1149.714,1317.018a3.175,3.175,0,0,0,1.009,2.317c-.2-.781-.433-1.553-.679-2.317Z" transform="translate(-943.792 -1277.937)"></path><path class="c" d="M1121.623,1317.018a3.189,3.189,0,0,0,6.379,0Z" transform="translate(-931.649 -1277.937)"></path><path class="c" d="M1099.145,1320.207a3.19,3.19,0,0,0,3.191-3.189h-3.191Z" transform="translate(-921.932 -1277.937)"></path><path class="c" d="M1121.623,1398.868a3.173,3.173,0,0,0,.086.713,43.365,43.365,0,0,0,4.424-3.608,3.173,3.173,0,0,0-4.51,2.9Z" transform="translate(-931.649 -1311.939)"></path><path class="c" d="M1113.957,1384.822a3.19,3.19,0,1,0-3.191,3.189A3.191,3.191,0,0,0,1113.957,1384.822Z" transform="translate(-925.577 -1305.867)"></path><path class="c" d="M1135.665,1384.823a3.15,3.15,0,0,0,.232,1.181,43.31,43.31,0,0,0,3.2-4.347c-.081-.005-.163-.024-.244-.024a3.191,3.191,0,0,0-3.19,3.191Z" transform="translate(-937.719 -1305.868)"></path><path class="c" d="M1102.337,1398.869a3.192,3.192,0,0,0-3.191-3.19v6.38A3.192,3.192,0,0,0,1102.337,1398.869Z" transform="translate(-921.933 -1311.94)"></path><path class="c" d="M1121.623,1373.2a3.189,3.189,0,1,0,6.379,0Z" transform="translate(-931.649 -1302.225)"></path><path class="c" d="M1099.145,1376.394a3.192,3.192,0,0,0,3.191-3.189h-3.191Z" transform="translate(-921.932 -1302.225)"></path><path class="c" d="M1096.717,1311.4h0a3.188,3.188,0,0,0-3.189,3.187v0h3.189Z" transform="translate(-919.504 -1275.509)"></path><path class="c" d="M1068.621,1311.4a3.187,3.187,0,0,0-3.189,3.187v0h6.379a3.189,3.189,0,0,0-3.189-3.189Z" transform="translate(-907.359 -1275.509)"></path><path class="c" d="M1096.754,1289.687h0v-6.38h0a3.191,3.191,0,0,0,0,6.381Z" transform="translate(-919.541 -1263.365)"></path><path class="c" d="M1068.621,1289.686a3.191,3.191,0,1,0-3.189-3.193v0A3.192,3.192,0,0,0,1068.621,1289.686Z" transform="translate(-907.359 -1263.364)"></path><path class="c" d="M1054.581,1303.732a3.19,3.19,0,1,0-3.189-3.19A3.189,3.189,0,0,0,1054.581,1303.732Z" transform="translate(-901.29 -1269.437)"></path><path class="c" d="M1082.668,1303.732a3.19,3.19,0,1,0-3.191-3.19,3.189,3.189,0,0,0,3.191,3.19Z" transform="translate(-913.431 -1269.437)"></path><path class="c" d="M1054.581,1275.639a3.19,3.19,0,1,0-3.189-3.189A3.189,3.189,0,0,0,1054.581,1275.639Z" transform="translate(-901.29 -1257.293)"></path><path class="c" d="M1082.668,1275.639a3.19,3.19,0,1,0-3.191-3.189,3.19,3.19,0,0,0,3.191,3.189Z" transform="translate(-913.431 -1257.293)"></path><path class="c" d="M1042.963,1311.4v3.189h3.19a3.189,3.189,0,0,0-3.19-3.189Z" transform="translate(-897.646 -1275.509)"></path><path class="c" d="M1046.153,1286.5a3.19,3.19,0,0,0-3.19-3.189v6.38A3.192,3.192,0,0,0,1046.153,1286.5Z" transform="translate(-897.646 -1263.365)"></path><path class="c" d="M1069.289,1265.388a3.187,3.187,0,0,0,2.634-1.394,43.083,43.083,0,0,0-4.945.391A3.174,3.174,0,0,0,1069.289,1265.388Z" transform="translate(-908.028 -1255.017)"></path><path class="c" d="M1096.717,1367.586h0a3.188,3.188,0,0,0-3.189,3.187v0h3.189Z" transform="translate(-919.504 -1299.796)"></path><path class="c" d="M1068.621,1367.586a3.188,3.188,0,0,0-3.189,3.187v0h6.379A3.19,3.19,0,0,0,1068.621,1367.586Z" transform="translate(-907.359 -1299.796)"></path><path class="c" d="M1096.718,1345.873h0v-6.38h0a3.19,3.19,0,0,0,0,6.38Z" transform="translate(-919.506 -1287.653)"></path><path class="c" d="M1068.621,1345.873a3.19,3.19,0,1,0-3.189-3.192h0A3.192,3.192,0,0,0,1068.621,1345.873Z" transform="translate(-907.359 -1287.653)"></path><path class="c" d="M1054.581,1359.918a3.19,3.19,0,1,0-3.189-3.191h0A3.191,3.191,0,0,0,1054.581,1359.918Z" transform="translate(-901.29 -1293.724)"></path><path class="c" d="M1082.668,1359.918a3.19,3.19,0,1,0-3.191-3.19,3.19,3.19,0,0,0,3.191,3.19Z" transform="translate(-913.431 -1293.724)"></path><path class="c" d="M1054.581,1331.827a3.189,3.189,0,1,0-3.189-3.19A3.189,3.189,0,0,0,1054.581,1331.827Z" transform="translate(-901.29 -1281.581)"></path><path class="c" d="M1082.668,1331.827a3.189,3.189,0,1,0-3.191-3.19,3.189,3.189,0,0,0,3.191,3.19Z" transform="translate(-913.431 -1281.581)"></path><path class="c" d="M1046.153,1370.776a3.19,3.19,0,0,0-3.19-3.189v3.189Z" transform="translate(-897.646 -1299.796)"></path><path class="c" d="M1042.963,1339.493v6.38a3.19,3.19,0,0,0,0-6.38Z" transform="translate(-897.646 -1287.653)"></path><path class="c" d="M1093.53,1317.018h0a3.189,3.189,0,0,0,3.188,3.189h0v-3.189Z" transform="translate(-919.505 -1277.937)"></path><path class="c" d="M1065.44,1317.018a3.189,3.189,0,0,0,6.379,0Z" transform="translate(-907.363 -1277.937)"></path><path class="c" d="M1042.963,1320.207a3.19,3.19,0,0,0,3.19-3.189h-3.19Z" transform="translate(-897.646 -1277.937)"></path><path class="c" d="M1065.514,1426.547q2.695-.889,5.354-1.877a3.174,3.174,0,0,0-5.354,1.877Z" transform="translate(-907.395 -1324.086)"></path><path class="c" d="M1096.754,1395.679h0a3.191,3.191,0,0,0,0,6.381h0Z" transform="translate(-919.541 -1311.94)"></path><path class="c" d="M1068.619,1395.679a3.191,3.191,0,1,0,3.19,3.192v0a3.189,3.189,0,0,0-3.188-3.19Z" transform="translate(-907.357 -1311.94)"></path><path class="c" d="M1057.772,1412.914a3.191,3.191,0,1,0-3.193,3.189h0A3.191,3.191,0,0,0,1057.772,1412.914Z" transform="translate(-901.289 -1318.01)"></path><path class="c" d="M1085.86,1412.917a3.189,3.189,0,1,0-3.189,3.189h0a3.109,3.109,0,0,0,.869-.135c.229-.1.459-.189.688-.287A3.173,3.173,0,0,0,1085.86,1412.917Z" transform="translate(-913.433 -1318.013)"></path><path class="c" d="M1054.583,1381.632a3.189,3.189,0,1,0,3.192,3.191,3.19,3.19,0,0,0-3.192-3.191Z" transform="translate(-901.292 -1305.868)"></path><path class="c" d="M1082.668,1388.013a3.189,3.189,0,1,0-3.191-3.189,3.189,3.189,0,0,0,3.191,3.189Z" transform="translate(-913.431 -1305.869)"></path><path class="c" d="M1046.153,1426.963a3.189,3.189,0,0,0-3.19-3.19h0v3.19Z" transform="translate(-897.646 -1324.084)"></path><path class="c" d="M1042.963,1395.679v6.38a3.19,3.19,0,0,0,0-6.38Z" transform="translate(-897.646 -1311.94)"></path><path class="c" d="M1093.53,1373.2h0a3.189,3.189,0,0,0,3.188,3.189h0v-3.19Z" transform="translate(-919.505 -1302.224)"></path><path class="c" d="M1065.44,1373.2a3.189,3.189,0,1,0,6.379,0Z" transform="translate(-907.363 -1302.225)"></path><path class="c" d="M1042.963,1376.394a3.191,3.191,0,0,0,3.19-3.189h-3.19Z" transform="translate(-897.646 -1302.225)"></path><path class="c" d="M1046.153,1429.391h-3.19v3.189c.053,0,.1-.013.153-.015.394-.095.788-.187,1.18-.285A3.185,3.185,0,0,0,1046.153,1429.391Z" transform="translate(-897.646 -1326.513)"></path><path class="c" d="M1040.535,1311.4h0a3.187,3.187,0,0,0-3.188,3.187v0h3.188Z" transform="translate(-895.219 -1275.509)"></path><path class="c" d="M1015.633,1314.59a3.189,3.189,0,1,0-6.378,0Z" transform="translate(-883.076 -1275.509)"></path><path class="c" d="M1040.572,1289.687h0v-6.38h0a3.191,3.191,0,0,0,0,6.381Z" transform="translate(-895.256 -1263.365)"></path><path class="c" d="M1018.793,1289.686c-.74.832-1.454,1.688-2.13,2.578A3.175,3.175,0,0,0,1018.793,1289.686Z" transform="translate(-886.278 -1266.122)"></path><path class="c" d="M1026.488,1303.732a3.19,3.19,0,1,0-3.191-3.19,3.19,3.19,0,0,0,3.191,3.19Z" transform="translate(-889.146 -1269.437)"></path><path class="c" d="M1032.271,1277.93c-.6.424-1.2.859-1.776,1.314A3.188,3.188,0,0,0,1032.271,1277.93Z" transform="translate(-892.257 -1261.041)"></path><path class="c" d="M987.73,1315.745c.092-.351.162-.707.26-1.058-.4-.218-.808-.407-1.21-.614v1.669Z" transform="translate(-873.36 -1276.664)"></path><path class="c" d="M1040.535,1367.586h0a3.187,3.187,0,0,0-3.188,3.187v0h3.188Z" transform="translate(-895.219 -1299.796)"></path><path class="c" d="M1012.443,1367.586a3.189,3.189,0,0,0-3.188,3.189h6.378A3.19,3.19,0,0,0,1012.443,1367.586Z" transform="translate(-883.076 -1299.796)"></path><path class="c" d="M1040.536,1339.493a3.19,3.19,0,0,0,0,6.38h0Z" transform="translate(-895.22 -1287.653)"></path><path class="c" d="M1012.442,1339.493a3.19,3.19,0,1,0,3.19,3.19h0a3.189,3.189,0,0,0-3.189-3.189Z" transform="translate(-883.074 -1287.653)"></path><path class="c" d="M998.4,1359.918a3.19,3.19,0,1,0-3.189-3.191h0A3.192,3.192,0,0,0,998.4,1359.918Z" transform="translate(-877.003 -1293.724)"></path><path class="c" d="M1026.488,1359.918a3.19,3.19,0,1,0-3.191-3.19,3.19,3.19,0,0,0,3.191,3.19Z" transform="translate(-889.146 -1293.724)"></path><path class="c" d="M1004.209,1328.768a3.183,3.183,0,0,0-2.2-3.016,43.652,43.652,0,0,0-.742,6.18A3.179,3.179,0,0,0,1004.209,1328.768Z" transform="translate(-879.623 -1281.713)"></path><path class="c" d="M1023.3,1328.635a3.19,3.19,0,1,0,3.191-3.189,3.189,3.189,0,0,0-3.191,3.189Z" transform="translate(-889.146 -1281.58)"></path><path class="c" d="M989.97,1370.776a3.19,3.19,0,0,0-3.19-3.189v3.189Z" transform="translate(-873.36 -1299.796)"></path><path class="c" d="M989.972,1343.031a3.174,3.174,0,0,0-1.56-2.731h-1.628v5.919A3.192,3.192,0,0,0,989.972,1343.031Z" transform="translate(-873.362 -1288.001)"></path><path class="c" d="M1037.347,1317.018h0a3.188,3.188,0,0,0,3.188,3.189h0v-3.189Z" transform="translate(-895.219 -1277.937)"></path><path class="c" d="M1009.255,1317.018a3.189,3.189,0,0,0,6.378,0Z" transform="translate(-883.076 -1277.937)"></path><path class="c" d="M986.78,1320.207c.076,0,.147-.017.222-.021.208-1.064.454-2.116.728-3.167h-.95Z" transform="translate(-873.36 -1277.937)"></path><path class="c" d="M1040.535,1423.773h0a3.188,3.188,0,0,0-3.188,3.187v0h3.188Z" transform="translate(-895.219 -1324.084)"></path><path class="c" d="M1012.443,1423.773a3.189,3.189,0,0,0-3.188,3.189h6.378a3.189,3.189,0,0,0-3.189-3.19Z" transform="translate(-883.076 -1324.084)"></path><path class="c" d="M1040.572,1395.679a3.191,3.191,0,0,0,0,6.381h0v-6.38Z" transform="translate(-895.256 -1311.94)"></path><path class="c" d="M1012.443,1402.059a3.191,3.191,0,1,0-3.188-3.194v0A3.192,3.192,0,0,0,1012.443,1402.059Z" transform="translate(-883.076 -1311.939)"></path><path class="c" d="M998.4,1416.106a3.189,3.189,0,1,0-3.189-3.189A3.19,3.19,0,0,0,998.4,1416.106Z" transform="translate(-877.003 -1318.013)"></path><path class="c" d="M1026.488,1416.106a3.189,3.189,0,1,0-3.191-3.189,3.19,3.19,0,0,0,3.191,3.189Z" transform="translate(-889.146 -1318.013)"></path><path class="c" d="M995.209,1384.823a3.19,3.19,0,1,0,3.19-3.191h0a3.188,3.188,0,0,0-3.189,3.188Z" transform="translate(-877.004 -1305.868)"></path><path class="c" d="M1026.488,1388.013a3.189,3.189,0,1,0-3.191-3.189,3.19,3.19,0,0,0,3.191,3.189Z" transform="translate(-889.146 -1305.869)"></path><path class="c" d="M986.78,1423.773v3.19h3.19A3.19,3.19,0,0,0,986.78,1423.773Z" transform="translate(-873.36 -1324.084)"></path><path class="c" d="M989.97,1398.869a3.192,3.192,0,0,0-3.19-3.19v6.38A3.191,3.191,0,0,0,989.97,1398.869Z" transform="translate(-873.36 -1311.94)"></path><path class="c" d="M1040.535,1376.394h0v-3.19h-3.188a3.189,3.189,0,0,0,3.188,3.19Z" transform="translate(-895.219 -1302.225)"></path><path class="c" d="M1009.255,1373.2a3.189,3.189,0,1,0,6.378,0Z" transform="translate(-883.076 -1302.225)"></path><path class="c" d="M986.78,1376.394a3.192,3.192,0,0,0,3.19-3.189h-3.19Z" transform="translate(-873.36 -1302.225)"></path><path class="c" d="M998.445,1437.82a3.189,3.189,0,0,0-3.128,2.574c2.035-.139,4.069-.325,6.1-.537A3.188,3.188,0,0,0,998.445,1437.82Z" transform="translate(-877.05 -1330.157)"></path><path class="c" d="M1026.181,1438.238c.694-.123,1.388-.233,2.08-.365a3.112,3.112,0,0,0-.528-.053A3.159,3.159,0,0,0,1026.181,1438.238Z" transform="translate(-890.392 -1330.157)"></path><path class="c" d="M1037.347,1429.391h0a3.189,3.189,0,0,0,3.188,3.189h0v-3.189Z" transform="translate(-895.219 -1326.513)"></path><path class="c" d="M1009.255,1429.391a3.189,3.189,0,1,0,6.378,0Z" transform="translate(-883.076 -1326.513)"></path><path class="c" d="M986.78,1432.58a3.191,3.191,0,0,0,3.19-3.189h-3.19Z" transform="translate(-873.36 -1326.513)"></path><path class="c" d="M981.162,1315.043h3.19v-1.67c-.613-.315-1.221-.635-1.846-.924A3.178,3.178,0,0,0,981.162,1315.043Z" transform="translate(-870.932 -1275.962)"></path><path class="c" d="M959.45,1314.59a3.189,3.189,0,1,0-6.378,0Z" transform="translate(-858.789 -1275.509)"></path><path class="c" d="M942.283,1306.617a3.191,3.191,0,0,0,3.113-2.5c-.924-.049-1.848-.086-2.779-.086-1.15,0-2.294.052-3.433.127A3.186,3.186,0,0,0,942.283,1306.617Z" transform="translate(-852.786 -1272.322)"></path><path class="c" d="M971.607,1307.944c-.837-.273-1.684-.512-2.533-.741a3.162,3.162,0,0,0,2.077.787A3.109,3.109,0,0,0,971.607,1307.944Z" transform="translate(-865.706 -1273.694)"></path><path class="c" d="M933.785,1314.59a3.189,3.189,0,0,0-3.189-3.189h0v3.189Z" transform="translate(-849.073 -1275.509)"></path><path class="c" d="M984.352,1370.776v-3.189h0a3.189,3.189,0,0,0-3.189,3.188h3.189Z" transform="translate(-870.932 -1299.796)"></path><path class="c" d="M956.26,1367.586a3.187,3.187,0,0,0-3.188,3.187v0h6.378A3.19,3.19,0,0,0,956.26,1367.586Z" transform="translate(-858.789 -1299.796)"></path><path class="c" d="M983.6,1339.668a3.185,3.185,0,0,0,.753,6.281h0v-5.922h-.766C983.585,1339.909,983.6,1339.789,983.6,1339.668Z" transform="translate(-870.932 -1287.728)"></path><path class="c" d="M956.26,1345.873a3.19,3.19,0,1,0-3.188-3.192h0A3.192,3.192,0,0,0,956.26,1345.873Z" transform="translate(-858.789 -1287.653)"></path><path class="c" d="M942.214,1359.918a3.19,3.19,0,1,0-3.19-3.19h0A3.191,3.191,0,0,0,942.214,1359.918Z" transform="translate(-852.717 -1293.724)"></path><path class="c" d="M970.3,1359.918a3.19,3.19,0,1,0-3.19-3.19h0A3.19,3.19,0,0,0,970.3,1359.918Z" transform="translate(-864.859 -1293.724)"></path><path class="c" d="M939.027,1328.635a3.191,3.191,0,1,0,3.192-3.189h0A3.19,3.19,0,0,0,939.027,1328.635Z" transform="translate(-852.718 -1281.58)"></path><path class="c" d="M970.3,1331.827a3.189,3.189,0,1,0-3.19-3.19,3.189,3.189,0,0,0,3.19,3.19Z" transform="translate(-864.859 -1281.581)"></path><path class="c" d="M933.785,1370.776a3.19,3.19,0,0,0-3.19-3.189v3.189Z" transform="translate(-849.073 -1299.796)"></path><path class="c" d="M930.6,1339.493v6.38a3.19,3.19,0,0,0,0-6.38Z" transform="translate(-849.073 -1287.653)"></path><path class="c" d="M981.162,1317.018h0a3.188,3.188,0,0,0,3.188,3.189h0v-3.189Z" transform="translate(-870.932 -1277.937)"></path><path class="c" d="M953.075,1317.018a3.189,3.189,0,0,0,6.378,0Z" transform="translate(-858.79 -1277.937)"></path><path class="c" d="M930.6,1320.207a3.19,3.19,0,0,0,3.19-3.189H930.6Z" transform="translate(-849.073 -1277.937)"></path><path class="c" d="M984.352,1423.773h0a3.189,3.189,0,0,0-3.189,3.187v0h3.189Z" transform="translate(-870.932 -1324.084)"></path><path class="c" d="M956.26,1423.773a3.188,3.188,0,0,0-3.188,3.187v0h6.378a3.189,3.189,0,0,0-3.189-3.19Z" transform="translate(-858.789 -1324.084)"></path><path class="c" d="M984.388,1402.061h0v-6.38h0a3.191,3.191,0,0,0,0,6.381Z" transform="translate(-870.969 -1311.941)"></path><path class="c" d="M956.258,1395.679a3.191,3.191,0,1,0,3.19,3.192v0a3.189,3.189,0,0,0-3.188-3.19Z" transform="translate(-858.787 -1311.94)"></path><path class="c" d="M942.214,1416.106a3.189,3.189,0,1,0-3.19-3.189A3.188,3.188,0,0,0,942.214,1416.106Z" transform="translate(-852.717 -1318.013)"></path><path class="c" d="M970.3,1409.725a3.189,3.189,0,1,0,3.189,3.191,3.19,3.19,0,0,0-3.189-3.191Z" transform="translate(-864.859 -1318.012)"></path><path class="c" d="M939.027,1384.823a3.191,3.191,0,1,0,3.192-3.191h0a3.189,3.189,0,0,0-3.19,3.189Z" transform="translate(-852.718 -1305.868)"></path><path class="c" d="M970.3,1381.632a3.189,3.189,0,1,0,3.189,3.191A3.19,3.19,0,0,0,970.3,1381.632Z" transform="translate(-864.859 -1305.868)"></path><path class="c" d="M933.785,1426.963a3.189,3.189,0,0,0-3.189-3.19h0v3.19Z" transform="translate(-849.073 -1324.084)"></path><path class="c" d="M930.6,1395.679v6.38a3.19,3.19,0,0,0,0-6.38Z" transform="translate(-849.073 -1311.94)"></path><path class="c" d="M981.162,1373.2h0a3.19,3.19,0,0,0,3.188,3.189h0v-3.19Z" transform="translate(-870.932 -1302.224)"></path><path class="c" d="M956.262,1376.394a3.192,3.192,0,0,0,3.19-3.189h-6.377A3.189,3.189,0,0,0,956.262,1376.394Z" transform="translate(-858.79 -1302.225)"></path><path class="c" d="M930.6,1376.394a3.19,3.19,0,0,0,3.19-3.189H930.6Z" transform="translate(-849.073 -1302.225)"></path><path class="c" d="M942.52,1437.82a3.172,3.172,0,0,0-2.789,1.671l1.921.219c.555.064,1.116.109,1.673.167.745.081,1.49.157,2.239.224A3.182,3.182,0,0,0,942.52,1437.82Z" transform="translate(-853.022 -1330.157)"></path><path class="c" d="M970.328,1437.82a3.179,3.179,0,0,0-3.158,2.872c1.669.051,3.336.081,5.005.081.439,0,.877-.018,1.316-.021A3.18,3.18,0,0,0,970.328,1437.82Z" transform="translate(-864.883 -1330.157)"></path><path class="c" d="M930.6,1479.959v3.19h3.129c.015-.053.03-.106.045-.163A3.183,3.183,0,0,0,930.6,1479.959Z" transform="translate(-849.073 -1348.372)"></path><path class="c" d="M930.6,1451.866v6.381a3.181,3.181,0,0,0,3.191-3.169,3.215,3.215,0,0,0-.061-.632l-.03-.121A3.188,3.188,0,0,0,930.6,1451.866Z" transform="translate(-849.073 -1336.228)"></path><path class="c" d="M981.162,1429.391h0a3.189,3.189,0,0,0,3.188,3.189h0v-3.189Z" transform="translate(-870.932 -1326.513)"></path><path class="c" d="M953.075,1429.391a3.189,3.189,0,1,0,6.378,0Z" transform="translate(-858.79 -1326.513)"></path><path class="c" d="M933.785,1429.391H930.6v3.189A3.19,3.19,0,0,0,933.785,1429.391Z" transform="translate(-849.073 -1326.513)"></path><path class="c" d="M930.6,1488.769a3.171,3.171,0,0,0,2.493-1.22c.234-.646.442-1.3.636-1.967H930.6Z" transform="translate(-849.073 -1350.802)"></path><path class="c" d="M928.167,1311.4h0a3.187,3.187,0,0,0-3.188,3.187v0h3.188Z" transform="translate(-846.645 -1275.509)"></path><path class="c" d="M902.8,1312.813q-2.283,1.082-4.461,2.387H903.9A3.17,3.17,0,0,0,902.8,1312.813Z" transform="translate(-835.131 -1276.119)"></path><path class="c" d="M916.824,1308.205a3.165,3.165,0,0,0,1.515-.468C917.831,1307.886,917.326,1308.041,916.824,1308.205Z" transform="translate(-843.12 -1273.925)"></path><path class="c" d="M928.167,1367.586h0a3.187,3.187,0,0,0-3.188,3.187v0h3.188Z" transform="translate(-846.645 -1299.796)"></path><path class="c" d="M901.132,1367.586a3.168,3.168,0,0,0-1.8.562v2.628h4.994A3.19,3.19,0,0,0,901.132,1367.586Z" transform="translate(-835.557 -1299.796)"></path><path class="c" d="M928.169,1339.493a3.19,3.19,0,0,0,0,6.38h0Z" transform="translate(-846.647 -1287.653)"></path><path class="c" d="M900.076,1339.493a3.19,3.19,0,1,0,3.19,3.19h0a3.189,3.189,0,0,0-3.188-3.189Z" transform="translate(-834.501 -1287.653)"></path><path class="c" d="M886.03,1359.918a3.19,3.19,0,1,0-3.189-3.191h0A3.191,3.191,0,0,0,886.03,1359.918Z" transform="translate(-828.43 -1293.724)"></path><path class="c" d="M914.12,1353.539a3.19,3.19,0,1,0,3.188,3.192v0A3.19,3.19,0,0,0,914.12,1353.539Z" transform="translate(-840.572 -1293.724)"></path><path class="c" d="M886.03,1331.826a3.19,3.19,0,1,0,0-6.38,3.152,3.152,0,0,0-1.608.45c-.29.251-.584.5-.869.753a3.155,3.155,0,0,0-.712,1.986,3.188,3.188,0,0,0,3.188,3.19Z" transform="translate(-828.43 -1281.58)"></path><path class="c" d="M914.121,1325.446a3.189,3.189,0,1,0,3.188,3.191v0A3.191,3.191,0,0,0,914.121,1325.446Z" transform="translate(-840.573 -1281.58)"></path><path class="c" d="M874.412,1368.216c.456-.1.908-.216,1.368-.311a3.159,3.159,0,0,0-1.368-.319Z" transform="translate(-824.787 -1299.796)"></path><path class="c" d="M877.6,1342.683a3.19,3.19,0,0,0-3.19-3.189v6.38A3.192,3.192,0,0,0,877.6,1342.683Z" transform="translate(-824.787 -1287.653)"></path><path class="c" d="M928.167,1320.207h0v-3.189h-3.188A3.188,3.188,0,0,0,928.167,1320.207Z" transform="translate(-846.645 -1277.937)"></path><path class="c" d="M900.113,1320.207a3.19,3.19,0,0,0,3.19-3.189h-5.555c-.26.155-.52.309-.776.47A3.18,3.18,0,0,0,900.113,1320.207Z" transform="translate(-834.539 -1277.937)"></path><path class="c" d="M928.167,1423.773h0a3.188,3.188,0,0,0-3.188,3.187v0h3.188Z" transform="translate(-846.645 -1324.084)"></path><path class="c" d="M900.077,1423.773a3.188,3.188,0,0,0-3.188,3.187v0h6.378a3.189,3.189,0,0,0-3.19-3.19Z" transform="translate(-834.503 -1324.084)"></path><path class="c" d="M928.2,1395.679a3.191,3.191,0,0,0,0,6.381h0v-6.38Z" transform="translate(-846.682 -1311.94)"></path><path class="c" d="M900.077,1402.059a3.191,3.191,0,1,0-3.188-3.194v0A3.191,3.191,0,0,0,900.077,1402.059Z" transform="translate(-834.503 -1311.939)"></path><path class="c" d="M886.03,1416.106a3.189,3.189,0,1,0-3.189-3.189A3.189,3.189,0,0,0,886.03,1416.106Z" transform="translate(-828.43 -1318.013)"></path><path class="c" d="M914.121,1416.106a3.189,3.189,0,1,0-3.19-3.189,3.189,3.189,0,0,0,3.19,3.189Z" transform="translate(-840.573 -1318.013)"></path><path class="c" d="M882.835,1385a3.19,3.19,0,1,0,4.362-2.961c-1.007.092-2.008.206-3,.351A3.182,3.182,0,0,0,882.835,1385Z" transform="translate(-828.428 -1306.043)"></path><path class="c" d="M914.121,1388.013a3.189,3.189,0,1,0-3.19-3.189,3.189,3.189,0,0,0,3.19,3.189Z" transform="translate(-840.573 -1305.869)"></path><path class="c" d="M874.412,1423.773v3.19h3.19A3.19,3.19,0,0,0,874.412,1423.773Z" transform="translate(-824.787 -1324.084)"></path><path class="c" d="M877.6,1398.869a3.191,3.191,0,0,0-3.19-3.19v6.38A3.191,3.191,0,0,0,877.6,1398.869Z" transform="translate(-824.787 -1311.94)"></path><path class="c" d="M928.167,1376.394h0v-3.19h-3.188a3.19,3.19,0,0,0,3.188,3.19Z" transform="translate(-846.645 -1302.225)"></path><path class="c" d="M904.322,1373.2h-4.994v2.628a3.186,3.186,0,0,0,4.994-2.627Z" transform="translate(-835.557 -1302.225)"></path><path class="c" d="M928.167,1479.959h0a3.188,3.188,0,0,0-3.188,3.187v0h3.188Z" transform="translate(-846.645 -1348.372)"></path><path class="c" d="M900.077,1479.959a3.188,3.188,0,0,0-3.188,3.187v0h6.378A3.191,3.191,0,0,0,900.077,1479.959Z" transform="translate(-834.503 -1348.372)"></path><path class="c" d="M928.166,1451.866a3.19,3.19,0,0,0,0,6.381h0Z" transform="translate(-846.644 -1336.228)"></path><path class="c" d="M900.076,1451.866a3.19,3.19,0,1,0,3.19,3.191h0a3.189,3.189,0,0,0-3.188-3.19Z" transform="translate(-834.501 -1336.228)"></path><path class="c" d="M886.031,1465.913a3.189,3.189,0,1,0,3.191,3.19,3.189,3.189,0,0,0-3.191-3.19Z" transform="translate(-828.432 -1342.3)"></path><path class="c" d="M914.121,1465.913a3.189,3.189,0,1,0,3.188,3.19h0A3.19,3.19,0,0,0,914.121,1465.913Z" transform="translate(-840.573 -1342.3)"></path><path class="c" d="M886.031,1437.82a3.189,3.189,0,1,0,3.191,3.19,3.189,3.189,0,0,0-3.191-3.19Z" transform="translate(-828.432 -1330.157)"></path><path class="c" d="M914.121,1437.82a3.189,3.189,0,1,0,3.188,3.19h0A3.19,3.19,0,0,0,914.121,1437.82Z" transform="translate(-840.573 -1330.157)"></path><path class="c" d="M874.412,1479.959v3.19h3.19A3.19,3.19,0,0,0,874.412,1479.959Z" transform="translate(-824.787 -1348.372)"></path><path class="c" d="M874.412,1451.866v6.381a3.19,3.19,0,0,0,0-6.381Z" transform="translate(-824.787 -1336.228)"></path><path class="c" d="M924.979,1429.391h0a3.189,3.189,0,0,0,3.188,3.189h0v-3.189Z" transform="translate(-846.645 -1326.513)"></path><path class="c" d="M896.883,1429.391a3.189,3.189,0,1,0,6.379,0Z" transform="translate(-834.5 -1326.513)"></path><path class="c" d="M874.412,1432.58a3.191,3.191,0,0,0,3.19-3.189h-3.19Z" transform="translate(-824.787 -1326.513)"></path><path class="c" d="M903.268,1511.245a3.189,3.189,0,1,0-3.19,3.191A3.189,3.189,0,0,0,903.268,1511.245Z" transform="translate(-834.503 -1360.518)"></path><path class="c" d="M886.116,1522.1a3.183,3.183,0,0,0-3.075,2.389,32.12,32.12,0,0,0,5.894-.665A3.18,3.18,0,0,0,886.116,1522.1Z" transform="translate(-828.517 -1366.588)"></path><path class="c" d="M882.835,1497.2a3.19,3.19,0,1,0,3.19-3.19h0a3.188,3.188,0,0,0-3.189,3.188Z" transform="translate(-828.428 -1354.444)"></path><path class="c" d="M914.121,1494.006a3.189,3.189,0,1,0,3.188,3.19A3.189,3.189,0,0,0,914.121,1494.006Z" transform="translate(-840.573 -1354.444)"></path><path class="c" d="M877.6,1511.243a3.192,3.192,0,0,0-3.19-3.191v6.381A3.191,3.191,0,0,0,877.6,1511.243Z" transform="translate(-824.787 -1360.516)"></path><path class="c" d="M924.979,1485.577h0a3.19,3.19,0,0,0,3.188,3.19h0v-3.19Z" transform="translate(-846.645 -1350.801)"></path><path class="c" d="M896.883,1485.577a3.189,3.189,0,0,0,6.379,0Z" transform="translate(-834.5 -1350.801)"></path><path class="c" d="M874.412,1488.767a3.192,3.192,0,0,0,3.19-3.19h-3.19Z" transform="translate(-824.787 -1350.801)"></path><path class="c" d="M872.49,1367.586a3.173,3.173,0,0,0-2.523,1.256q1.252-.339,2.523-.627v-.63Z" transform="translate(-822.865 -1299.796)"></path><path class="c" d="M872,1345.873h0v-6.38h0a3.185,3.185,0,0,0-.87.135q-1.057,1.383-2.019,2.823c-.094.14-.188.279-.28.42A3.18,3.18,0,0,0,872,1345.873Z" transform="translate(-822.373 -1287.653)"></path><path class="c" d="M859.906,1360.365a3.185,3.185,0,0,0,1.834-5.792c-.443.887-.856,1.791-1.246,2.7q-.378.884-.724,1.782c-.162.416-.32.832-.469,1.252A3.228,3.228,0,0,0,859.906,1360.365Z" transform="translate(-818.254 -1294.171)"></path><path class="c" d="M871.984,1423.773h0a3.188,3.188,0,0,0-3.188,3.187v0h3.189Z" transform="translate(-822.359 -1324.084)"></path><path class="c" d="M843.892,1423.773a3.188,3.188,0,0,0-3.188,3.187v0h6.379a3.19,3.19,0,0,0-3.189-3.19Z" transform="translate(-810.216 -1324.084)"></path><path class="c" d="M872.021,1402.061h0v-6.38h0a3.191,3.191,0,0,0,0,6.381Z" transform="translate(-822.396 -1311.941)"></path><path class="c" d="M843.9,1402.252a3.191,3.191,0,0,0,1.242-6.13q-2.287,1.421-4.418,3.056A3.183,3.183,0,0,0,843.9,1402.252Z" transform="translate(-810.225 -1312.132)"></path><path class="c" d="M829.846,1416.1a3.19,3.19,0,1,0-.623-6.316c-.874.871-1.709,1.781-2.522,2.711a3.087,3.087,0,0,0,3.147,3.605Z" transform="translate(-804.143 -1318.012)"></path><path class="c" d="M857.937,1416.106a3.189,3.189,0,1,0-3.191-3.189,3.19,3.19,0,0,0,3.191,3.189Z" transform="translate(-816.286 -1318.013)"></path><path class="c" d="M861.98,1387.568a54.535,54.535,0,0,0-5.215,2.25,3.162,3.162,0,0,0,5.215-2.25Z" transform="translate(-817.158 -1308.434)"></path><path class="c" d="M821.419,1427.03a3.185,3.185,0,0,0-2.474-3.1c-.244.361-.479.732-.716,1.1v2Z" transform="translate(-800.5 -1324.152)"></path><path class="c" d="M871.984,1479.959h0a3.189,3.189,0,0,0-3.188,3.189h3.189Z" transform="translate(-822.359 -1348.372)"></path><path class="c" d="M843.892,1479.959a3.189,3.189,0,0,0-3.188,3.189h6.379A3.191,3.191,0,0,0,843.892,1479.959Z" transform="translate(-810.216 -1348.372)"></path><path class="c" d="M871.981,1451.866a3.19,3.19,0,1,0,0,6.381h0Z" transform="translate(-822.357 -1336.228)"></path><path class="c" d="M843.892,1458.247a3.19,3.19,0,1,0-3.188-3.192h0A3.192,3.192,0,0,0,843.892,1458.247Z" transform="translate(-810.216 -1336.228)"></path><path class="c" d="M829.846,1472.293a3.19,3.19,0,1,0-3.19-3.19A3.189,3.189,0,0,0,829.846,1472.293Z" transform="translate(-804.143 -1342.301)"></path><path class="c" d="M857.937,1472.293a3.19,3.19,0,1,0-3.191-3.19,3.19,3.19,0,0,0,3.191,3.19Z" transform="translate(-816.286 -1342.301)"></path><path class="c" d="M829.846,1444.2a3.19,3.19,0,1,0-3.19-3.19A3.19,3.19,0,0,0,829.846,1444.2Z" transform="translate(-804.143 -1330.157)"></path><path class="c" d="M854.739,1441.01a3.19,3.19,0,1,0,3.191-3.19,3.189,3.189,0,0,0-3.191,3.19Z" transform="translate(-816.283 -1330.157)"></path><path class="c" d="M821.419,1483.149a3.19,3.19,0,0,0-3.19-3.19v3.19Z" transform="translate(-800.5 -1348.372)"></path><path class="c" d="M821.419,1455.056a3.19,3.19,0,0,0-3.19-3.19v6.381A3.192,3.192,0,0,0,821.419,1455.056Z" transform="translate(-800.5 -1336.228)"></path><path class="c" d="M868.787,1429.391h0a3.19,3.19,0,0,0,3.188,3.189h0v-3.189Z" transform="translate(-822.355 -1326.513)"></path><path class="c" d="M843.892,1432.58a3.191,3.191,0,0,0,3.191-3.189H840.7A3.189,3.189,0,0,0,843.892,1432.58Z" transform="translate(-810.216 -1326.513)"></path><path class="c" d="M818.229,1432.58a3.191,3.191,0,0,0,3.19-3.189h-3.19Z" transform="translate(-800.5 -1326.513)"></path><path class="c" d="M872.021,1508.052h0a3.191,3.191,0,0,0,0,6.381h0Z" transform="translate(-822.396 -1360.516)"></path><path class="c" d="M843.89,1508.052a3.191,3.191,0,1,0,3.191,3.192h0a3.19,3.19,0,0,0-3.189-3.191Z" transform="translate(-810.213 -1360.516)"></path><path class="c" d="M829.893,1522.1a3.188,3.188,0,0,0-3.128,2.579c.522-.317,1.058-.6,1.6-.883a27.655,27.655,0,0,1,2.963-1.342A3.159,3.159,0,0,0,829.893,1522.1Z" transform="translate(-804.19 -1366.588)"></path><path class="c" d="M833.037,1497.194a3.191,3.191,0,1,0-3.193,3.189h0A3.192,3.192,0,0,0,833.037,1497.194Z" transform="translate(-804.143 -1354.443)"></path><path class="c" d="M857.937,1500.386a3.189,3.189,0,1,0-3.191-3.19,3.19,3.19,0,0,0,3.191,3.19Z" transform="translate(-816.286 -1354.445)"></path><path class="c" d="M818.229,1508.052v6.381a3.19,3.19,0,0,0,0-6.381Z" transform="translate(-800.5 -1360.516)"></path><path class="c" d="M868.787,1485.577h0a3.191,3.191,0,0,0,3.188,3.19h0v-3.19Z" transform="translate(-822.355 -1350.801)"></path><path class="c" d="M840.7,1485.577a3.189,3.189,0,0,0,6.379,0Z" transform="translate(-810.216 -1350.801)"></path><path class="c" d="M818.229,1485.577v3.19a3.193,3.193,0,0,0,3.19-3.19Z" transform="translate(-800.5 -1350.801)"></path><path class="c" d="M817.285,1425.862q-.639.988-1.239,2h1.239Z" transform="translate(-799.557 -1324.987)"></path><path class="c" d="M815.8,1479.959h0a3.189,3.189,0,0,0-3.189,3.187v0H815.8Z" transform="translate(-798.072 -1348.372)"></path><path class="c" d="M815.8,1458.247h0v-6.381h0a3.19,3.19,0,0,0,0,6.381Z" transform="translate(-798.07 -1336.228)"></path><path class="c" d="M806.77,1469.1a3.189,3.189,0,0,0-3.188-3.19h0a3.121,3.121,0,0,0-.353.036,55.034,55.034,0,0,0-.436,6.233,3.151,3.151,0,0,0,3.978-3.079Z" transform="translate(-793.827 -1342.3)"></path><path class="c" d="M808.886,1442.962a3.217,3.217,0,0,0-.063-.625c-.2.506-.413,1.009-.6,1.521s-.359,1.051-.535,1.578A3.169,3.169,0,0,0,808.886,1442.962Z" transform="translate(-795.943 -1332.109)"></path><path class="c" d="M816.4,1432.58h0v-3.189h-1.239q-.6,1.024-1.164,2.075A3.166,3.166,0,0,0,816.4,1432.58Z" transform="translate(-798.669 -1326.513)"></path><path class="c" d="M815.836,1508.052a3.191,3.191,0,0,0,0,6.381h0v-6.38Z" transform="translate(-798.109 -1360.516)"></path><path class="c" d="M807.316,1497.2a3.19,3.19,0,0,0-3.189-3.19h0c-.024,0-.048.007-.072.007.066.4.127.806.2,1.207.308,1.651.7,3.28,1.16,4.888A3.186,3.186,0,0,0,807.316,1497.2Z" transform="translate(-794.373 -1354.444)"></path><path class="c" d="M812.611,1485.577h0a3.19,3.19,0,0,0,3.188,3.19h0v-3.19Z" transform="translate(-798.072 -1350.801)"></path><path class="d" d="M993.564,1383.357a95.338,95.338,0,0,0-6.645-35.124c-.862-2.184-1.813-4.348-2.84-6.474a52.3,52.3,0,1,0-79.24-63.985,60.721,60.721,0,0,0-88.349,47.241A63.747,63.747,0,0,0,797,1413.034q1.2,1.879,2.524,3.67a28.02,28.02,0,0,0,35.616,39.26c.192-.083.384-.168.576-.256,17.29,15.555,38.151,23.438,62.056,23.438a95.786,95.786,0,0,0,95.786-95.786h0Zm-76.173-109.035c.677-.89,1.39-1.746,2.13-2.577a43.56,43.56,0,0,1,5.723-5.361c.58-.454,1.174-.889,1.776-1.314a42.681,42.681,0,0,1,23.885-7.912c.353-.009.7-.039,1.058-.039a43.215,43.215,0,0,1,23.356,6.857,43.665,43.665,0,0,1,5.569,4.232c.588.528,1.164,1.066,1.721,1.623a43.395,43.395,0,0,1,10.407,16.71c.081.239.163.476.244.717.244.764.475,1.536.679,2.317a43.342,43.342,0,0,1,1.384,10.556c0,.116.009.232.009.349a43.457,43.457,0,0,1-22.457,38l.009.017a161.882,161.882,0,0,1-78.582,20.3,164.472,164.472,0,0,1-16.99-.9c-.557-.057-1.118-.1-1.673-.167l-1.921-.22-4.866-.558,2,6.531c.188.612.474,1.615.774,2.79l.03.121a36.668,36.668,0,0,1,1.282,7.6,32.009,32.009,0,0,1-1.237,8.8c-.015.052-.03.106-.045.163-.194.664-.4,1.322-.636,1.967a32.155,32.155,0,0,1-30.183,21.173c-4.282,0-12.473-2.6-15.266-3.6l-.732-.263h-.778a27.855,27.855,0,0,0-12.883,3.153c-.539.281-1.076.57-1.6.883a28.076,28.076,0,0,0-4.255,3.159,54.051,54.051,0,0,1-8.436-20.473c-.075-.4-.136-.8-.2-1.207-.153-.936-.291-1.872-.4-2.823a56.233,56.233,0,0,1-.339-6.166,53.753,53.753,0,0,1,2.8-17.253c.176-.527.344-1.058.535-1.577s.4-1.015.6-1.521a54.747,54.747,0,0,1,2.442-5.275q.559-1.053,1.164-2.075t1.239-2c.238-.367.471-.738.716-1.1a55.055,55.055,0,0,1,4.11-5.29c.814-.93,1.65-1.839,2.523-2.711a55.164,55.164,0,0,1,5.421-4.731q2.13-1.632,4.418-3.056t4.688-2.6a53.82,53.82,0,0,1,16.167-5.039c.991-.145,1.992-.26,3-.352,1.647-.15,3.312-.238,5-.238h0V1315a63.4,63.4,0,0,0-24.346,4.835,51.537,51.537,0,0,1,2.091-6.77q.345-.9.725-1.781a51.611,51.611,0,0,1,4.215-7.882c.092-.141.186-.28.28-.419a51.95,51.95,0,0,1,8.291-9.646c.031-.029.065-.055.1-.082.285-.258.579-.5.869-.753a51.819,51.819,0,0,1,6.442-4.765c.257-.163.517-.315.777-.47q2.174-1.306,4.461-2.387a51.677,51.677,0,0,1,6.033-2.414q.754-.244,1.515-.468a51.75,51.75,0,0,1,11.18-1.979c1.139-.075,2.279-.127,3.432-.127.931,0,1.856.037,2.779.086a51.575,51.575,0,0,1,10.757,1.717c.85.229,1.7.468,2.533.74a51.211,51.211,0,0,1,5.673,2.238c.623.289,1.233.609,1.846.924.4.207.814.4,1.21.614h0a52.222,52.222,0,0,0-1.981,14.272h8.939a43.246,43.246,0,0,1,2.584-14.785q.525-1.445,1.149-2.835l.22-.3-.067-.047a43.048,43.048,0,0,1,4.906-8.188Zm41.8,170.447a86.281,86.281,0,0,1-61.412,25.438c-22.631,0-42.23-7.794-58.254-23.166l-2.5-2.4-2.946,1.823c-.263.163-.532.32-.8.469-.543.3-1.1.577-1.673.822a19.07,19.07,0,1,1-8.267-36.569c2.821.971,11.677,3.849,17.5,3.849A41.087,41.087,0,0,0,881.874,1374a35.371,35.371,0,0,0-.852-6.769c4.408.338,8.851.508,13.271.508a170.826,170.826,0,0,0,82.237-21.042q1.111,2.381,2.072,4.818a86.956,86.956,0,0,1-19.415,93.255Z" transform="translate(-787.001 -1248.181)"></path><path class="d" d="M1069.122,1492.964l-2.774-7.451-19.863-2.36-1.058,8.876,11.231,1.335-7.922,8.686,6.6,6.022Z" transform="translate(-898.712 -1349.753)"></path><path class="d" d="M982.756,1489.7l4.99,2.865-3.337,5.8c1.675,3.545,4.366,5.746,7.02,5.334,3.719-.579,5.954-6.073,4.99-12.272s-4.76-10.757-8.48-10.178C985.015,1481.7,983.009,1485.2,982.756,1489.7Z" transform="translate(-871.621 -1348.909)"></path><path class="d" d="M1095.766,1459.872l-3.337,5.8c1.676,3.545,4.367,5.746,7.02,5.334,3.72-.578,5.954-6.073,4.99-12.272s-4.76-10.756-8.479-10.178c-2.93.455-4.934,3.955-5.186,8.447Z" transform="translate(-918.315 -1334.778)"></path><path class="d" d="M1039.479,1532.919c-2.8-1.7-5.46-.837-7.6-.146-.454.146-.924.3-1.415.438-7.871,2.233-18.121.407-24.315-2.227-7.29-3.1-13.9-1.494-18.129,4.42-4.088,5.713-4.908,13.844-4.314,19.548.983,9.4,5.31,17.206,11.871,21.411a20.924,20.924,0,0,0,11.451,3.331,26.407,26.407,0,0,0,8.483-1.475c12.589-4.267,23.92-16.025,26.938-27.958a38.373,38.373,0,0,0,1-6.5C1043.776,1538.362,1042.439,1534.715,1039.479,1532.919Zm-26.668,37.33c-4.125,1.4-7.826,1.365-11.038-.082a8.944,8.944,0,0,1,17.281-2.877,31.471,31.471,0,0,1-6.243,2.959Zm21.485-22.055c-1.221,4.829-4.344,9.73-8.464,13.786a17.37,17.37,0,0,0-30.96,1.423,24.936,24.936,0,0,1-2.8-9.325c-.539-5.159.581-10.7,2.786-13.777,2.406-3.363,5.389-2.686,7.989-1.576,7.762,3.307,20.02,5.387,29.91,2.581.637-.181,1.2-.363,1.709-.526l.529-.169a23.361,23.361,0,0,1-.7,7.582Z" transform="translate(-871.957 -1369.76)"></path></g></g></svg> 