<svg id="Group_26813" data-name="Group 26813" xmlns="http://www.w3.org/2000/svg" width="178.421" height="24.449" viewBox="0 0 178.421 24.449">
	<g id="Group_26722" data-name="Group 26722" transform="translate(0 0)">
		<path id="Path_21777" data-name="Path 21777" d="M122.9,43.8c0-3.5.98-6.3,5.086-6.3s4.619,2.8,4.619,6.3a.7.7,0,0,1-.747.793H124.58c.093,2.1.653,4.013,3.406,4.013a10.24,10.24,0,0,0,3.359-.467c.513-.187.746.093.746.373v.373c0,.28-.093.467-.513.653a10.779,10.779,0,0,1-3.546.56C123.88,50.1,122.9,47.3,122.9,43.8Zm1.68-.607h6.3c0-2.146-.14-4.2-2.893-4.2C125.186,38.993,124.673,41,124.58,43.192Z" transform="translate(-122.9 -31.668)" fill="#eb6617"/>
		<path id="Path_21778" data-name="Path 21778" d="M155.545,46.412c0-1.12-.327-1.913-2.753-2.1-3.5-.327-4.246-1.54-4.246-3.219,0-1.726,1.12-3.593,4.526-3.593a10.294,10.294,0,0,1,3.173.467.669.669,0,0,1,.513.7v.28c0,.373-.327.653-.84.467a9.652,9.652,0,0,0-2.893-.42c-2.38,0-2.893.886-2.893,2.1,0,1.073.42,1.633,2.753,1.82,3.453.327,4.292,1.493,4.292,3.453,0,1.866-1.166,3.733-4.9,3.733a11.257,11.257,0,0,1-3.266-.513.669.669,0,0,1-.513-.7V48.6a.541.541,0,0,1,.746-.513,10.449,10.449,0,0,0,3.126.513C154.846,48.6,155.545,47.532,155.545,46.412Z" transform="translate(-136.555 -31.668)" fill="#094895"/>
		<path id="Path_21779" data-name="Path 21779" d="M172.547,25.793a.7.7,0,0,1,.746-.793h.233a.7.7,0,0,1,.747.793v6.019a6.059,6.059,0,0,1,3.266-.98c2.893,0,4.106,1.306,4.106,3.639V42.45a.7.7,0,0,1-.747.793h-.233a.7.7,0,0,1-.747-.793V34.378c0-1.586-.933-2.053-2.426-2.053a5.712,5.712,0,0,0-3.266.793V42.45a.7.7,0,0,1-.747.793h-.233a.7.7,0,0,1-.747-.793V25.793Z" transform="translate(-149.358 -25)" fill="#094895"/>
		<path id="Path_21780" data-name="Path 21780" d="M202.586,50.1c-4.153,0-5.086-2.613-5.086-6.3s.933-6.3,5.086-6.3,5.086,2.613,5.086,6.3S206.738,50.1,202.586,50.1Zm0-11.1c-3.219,0-3.406,2.053-3.406,4.806s.187,4.806,3.406,4.806c3.173,0,3.406-2.053,3.406-4.806S205.712,38.993,202.586,38.993Z" transform="translate(-162.693 -31.668)" fill="#094895"/>
		<path id="Path_21781" data-name="Path 21781" d="M226.526,55.13a.7.7,0,0,1-.747.793h-.233a.7.7,0,0,1-.747-.793V38.24a.5.5,0,0,1,.513-.56h.047c.327,0,.467.187.607.607l.14.373a7.029,7.029,0,0,1,3.779-1.26c3.919,0,4.992,2.8,4.992,6.3S233.8,50,229.886,50a6.651,6.651,0,0,1-3.406-.98V55.13ZM233.2,43.746c0-2.38-.373-4.806-3.266-4.806a6.337,6.337,0,0,0-3.406.793V47.8a6.337,6.337,0,0,0,3.406.793C232.872,48.551,233.2,46.172,233.2,43.746Z" transform="translate(-177.255 -31.614)" fill="#094895"/>
		<path id="Path_21782" data-name="Path 21782" d="M253.726,55.13a.7.7,0,0,1-.747.793h-.233A.7.7,0,0,1,252,55.13V38.24a.5.5,0,0,1,.513-.56h.047c.327,0,.466.187.607.607l.14.373a7.03,7.03,0,0,1,3.779-1.26c3.919,0,4.992,2.8,4.992,6.3S261,50,257.086,50a6.651,6.651,0,0,1-3.406-.98V55.13ZM260.4,43.746c0-2.38-.373-4.806-3.266-4.806a6.338,6.338,0,0,0-3.406.793V47.8a6.338,6.338,0,0,0,3.406.793C260.025,48.551,260.4,46.172,260.4,43.746Z" transform="translate(-191.764 -31.614)" fill="#094895"/>
		<path id="Path_21783" data-name="Path 21783" d="M280.513,27.6a1.213,1.213,0,1,1-1.213,1.213A1.177,1.177,0,0,1,280.513,27.6Zm.793,15.164c0,.42.14.607.56.653q.56.07.56.56v.14c0,.373-.187.56-.7.56a1.845,1.845,0,0,1-2.1-2.006V33.246a.7.7,0,0,1,.747-.793h.187a.7.7,0,0,1,.746.793Z" transform="translate(-206.327 -26.387)" fill="#094895"/>
		<path id="Path_21784" data-name="Path 21784" d="M291.047,38.293a.5.5,0,0,1,.513-.56h.047c.327,0,.466.187.607.607l.14.42a6.074,6.074,0,0,1,3.686-1.26c2.893,0,4.106,1.306,4.106,3.639v7.979a.7.7,0,0,1-.747.793h-.233a.7.7,0,0,1-.746-.793V41.046c0-1.586-.933-2.053-2.426-2.053a5.712,5.712,0,0,0-3.266.793v9.332a.7.7,0,0,1-.746.793h-.233a.7.7,0,0,1-.747-.793V38.293Z" transform="translate(-212.567 -31.668)" fill="#094895"/>
		<path id="Path_21785" data-name="Path 21785" d="M325.111,37.627c.327,0,.56.14.56.467,0,.373-.233.513-.607.607l-1.54.42a5,5,0,0,1,.7,2.8c0,2.52-1.073,4.572-4.712,4.572a8.022,8.022,0,0,1-1.586-.14,1.385,1.385,0,0,0-.467.886c0,.607.28.887.933.933l4.106.467c2.286.233,3.313,1.12,3.313,3.266,0,2.939-2.939,4.106-6.3,4.106-3.406,0-5.412-.98-5.412-3.686a3.4,3.4,0,0,1,2.52-3.219v-.047a1.781,1.781,0,0,1-.793-1.586,2.054,2.054,0,0,1,.933-1.633,4.176,4.176,0,0,1-1.96-3.966c0-2.52,1.073-4.573,4.713-4.573a8.06,8.06,0,0,1,1.96.233h3.639Zm-6.486,12.038c-1.586.373-2.939,1.12-2.939,2.66,0,1.773,1.353,2.286,3.873,2.286,2.426,0,4.713-.607,4.713-2.66,0-1.26-.56-1.726-2.053-1.913Zm4.059-7.7c0-1.586-.327-3.079-3.173-3.079s-3.173,1.493-3.173,3.079.327,3.079,3.173,3.079S322.685,43.552,322.685,41.966Z" transform="translate(-224.89 -31.561)" fill="#094895"/>
		<path id="Path_21786" data-name="Path 21786" d="M343.373,39.413c-.607.187-.887-.14-.887-.467v-.28a.7.7,0,0,1,.513-.7,10.814,10.814,0,0,1,3.266-.467c3.639,0,4.573,1.633,4.573,4.059V49.3a.5.5,0,0,1-.513.56h-.047c-.327,0-.42-.187-.607-.56l-.14-.373a6.443,6.443,0,0,1-3.686,1.213c-3.173,0-4.246-1.866-4.246-3.919s1.12-3.593,4.339-3.779l3.219-.187v-.7c0-1.773-.653-2.566-2.893-2.566A9.37,9.37,0,0,0,343.373,39.413Zm2.426,4.339c-1.726.187-2.473,1.073-2.473,2.473,0,1.073.28,2.38,2.566,2.38a5.826,5.826,0,0,0,3.219-.98v-4.2Z" transform="translate(-239.559 -31.668)" fill="#eb6617"/>
		<path id="Path_21787" data-name="Path 21787" d="M375.352,25.793A.7.7,0,0,1,376.1,25h.233a.7.7,0,0,1,.747.793V42.637a.5.5,0,0,1-.513.56h-.046c-.327,0-.467-.187-.607-.607l-.14-.373a7.029,7.029,0,0,1-3.779,1.26c-3.919,0-4.993-2.8-4.993-6.3s1.073-6.3,4.993-6.3a6.651,6.651,0,0,1,3.406.98V25.793ZM368.68,37.131c0,2.38.373,4.806,3.266,4.806a6.338,6.338,0,0,0,3.406-.793V33.119a6.338,6.338,0,0,0-3.406-.793C369.053,32.325,368.68,34.752,368.68,37.131Z" transform="translate(-253.107 -25)" fill="#eb6617"/>
		<path id="Path_21788" data-name="Path 21788" d="M397.865,50.364a.71.71,0,0,1-.746-.56L392.826,38.84a.57.57,0,0,1,.513-.84h.373a.874.874,0,0,1,.84.56l3.359,9.378,3.36-9.378a.832.832,0,0,1,.84-.56h.373a.6.6,0,0,1,.513.887l-4.293,10.965a.71.71,0,0,1-.747.56h-.093Z" transform="translate(-266.849 -31.934)" fill="#eb6617"/>
		<path id="Path_21789" data-name="Path 21789" d="M420.313,27.6a1.213,1.213,0,1,1-1.213,1.213A1.177,1.177,0,0,1,420.313,27.6Zm.793,15.164c0,.42.14.607.56.653q.56.07.56.56v.14c0,.373-.187.56-.7.56a1.845,1.845,0,0,1-2.1-2.006V33.246a.7.7,0,0,1,.747-.793h.187a.7.7,0,0,1,.747.793Z" transform="translate(-280.898 -26.387)" fill="#eb6617"/>
		<path id="Path_21790" data-name="Path 21790" d="M437.145,46.412c0-1.12-.327-1.913-2.753-2.1-3.5-.327-4.246-1.54-4.246-3.219,0-1.726,1.12-3.593,4.526-3.593a10.293,10.293,0,0,1,3.173.467.669.669,0,0,1,.513.7v.28c0,.373-.327.653-.84.467a9.653,9.653,0,0,0-2.893-.42c-2.38,0-2.893.886-2.893,2.1,0,1.073.42,1.633,2.753,1.82,3.453.327,4.293,1.493,4.293,3.453,0,1.866-1.167,3.733-4.9,3.733a11.258,11.258,0,0,1-3.266-.513.669.669,0,0,1-.513-.7V48.6a.541.541,0,0,1,.746-.513,10.45,10.45,0,0,0,3.126.513C436.492,48.6,437.145,47.532,437.145,46.412Z" transform="translate(-286.766 -31.668)" fill="#eb6617"/>
		<path id="Path_21791" data-name="Path 21791" d="M458.786,50.1c-4.153,0-5.086-2.613-5.086-6.3s.933-6.3,5.086-6.3,5.086,2.613,5.086,6.3S462.985,50.1,458.786,50.1Zm0-11.1c-3.219,0-3.406,2.053-3.406,4.806s.187,4.806,3.406,4.806c3.173,0,3.406-2.053,3.406-4.806S461.958,38.993,458.786,38.993Z" transform="translate(-299.355 -31.668)" fill="#eb6617"/>
		<path id="Path_21792" data-name="Path 21792" d="M487.212,37.547a.649.649,0,0,1,.653.7v.28a.532.532,0,0,1-.7.56,4.536,4.536,0,0,0-.84-.047,6.47,6.47,0,0,0-3.5.793v9.332a.7.7,0,0,1-.747.793h-.233a.7.7,0,0,1-.746-.793V38.293a.5.5,0,0,1,.513-.56h.047c.327,0,.467.187.607.607l.14.42a6.649,6.649,0,0,1,3.919-1.26A5.077,5.077,0,0,1,487.212,37.547Z" transform="translate(-313.97 -31.668)" fill="#eb6617"/>
	</g>
	<g id="Group_26724" data-name="Group 26724" transform="translate(174.035 1.493)">
		<path id="Path_21811" data-name="Path 21811" d="M500.286,30.346a2.123,2.123,0,0,1-2.193,2.146,2.151,2.151,0,0,1-2.193-2.146,2.181,2.181,0,0,1,2.193-2.146A2.151,2.151,0,0,1,500.286,30.346Zm-3.873,0a1.683,1.683,0,0,0,1.68,1.726,1.634,1.634,0,0,0,1.633-1.68,1.657,1.657,0,1,0-3.313-.047Zm1.353,1.12h-.513V29.32a4.042,4.042,0,0,1,.84-.047,1.285,1.285,0,0,1,.746.14.541.541,0,0,1,.187.467.585.585,0,0,1-.467.513v.047a.64.64,0,0,1,.373.513,1.113,1.113,0,0,0,.14.513h-.513c-.047-.093-.093-.28-.187-.513-.047-.233-.187-.327-.467-.327h-.233v.84Zm0-1.213H498c.28,0,.513-.093.513-.327,0-.187-.14-.327-.466-.327-.14,0-.233,0-.28.047Z" transform="translate(-495.9 -28.2)" fill="#eb6717"/>
	</g>
</svg>