<?xml version="1.0" encoding="UTF-8"?> <svg xmlns="http://www.w3.org/2000/svg" width="150.865" height="41.641" viewBox="0 0 150.865 41.641"><defs><style>.a{fill:#f9fbf1;}</style></defs><g transform="translate(8643.041 9445.389)"><g transform="translate(-8753.273 -9654.886)"><g transform="translate(110.232 209.497)"><path class="a" d="M119.057,224.568c-1.538-5.908-2.309-8.919-3.854-15.071h-4.971c0,1.911,1.152,3.821,1.152,5.732,0,7.519-1.152,15.038-1.152,22.557,1.671-.265,2.507-.393,4.179-.643q.008-9.261.016-18.523,1.725,9.01,3.483,18.015c.9-.128,1.352-.19,2.254-.313q1.751-9.067,3.546-18.126-.021,8.831-.042,17.661c1.676-.216,2.514-.32,4.192-.521.019-6.7-1.115-13.405-1.1-20.108.005-1.911,1.163-3.821,1.169-5.732h-4.971C121.4,215.409,120.616,218.419,119.057,224.568Z" transform="translate(-110.232 -209.497)"></path><path class="a" d="M197.023,209.5c-.384,2.5.386,5.01,0,7.515-.918,6.033-2.98,12.067-3.88,18.1,1.63-.188,2.445-.279,4.076-.453.248-1.909.372-2.862.621-4.761,1.389-.119,2.084-.176,3.473-.287.236,1.833.354,2.748.59,4.572,1.632-.157,2.448-.232,4.082-.375-.864-5.6-2.874-11.2-3.725-16.8-.381-2.5.392-5.01.013-7.515Zm2.607,5.732c.5,4.445.753,6.656,1.254,11.056-1.034.069-1.551.1-2.585.178" transform="translate(-173.626 -209.497)"></path><path class="a" d="M264.648,222.622c-1.536-5.194-2.3-7.815-3.836-13.125H255.84c-.007,1.925,1.139,3.85,1.132,5.775-.022,6.126-1.2,12.251-1.218,18.377,1.682-.141,2.523-.207,4.206-.332.022-6.384.033-9.576.056-15.959,1.384,6.349,2.077,9.488,3.464,15.711.907-.06,1.36-.09,2.267-.146q1.768-7.885,3.568-15.763c-.018,6.223-.028,9.335-.046,15.558,1.685-.092,2.527-.133,4.212-.21.015-5.76-1.123-11.519-1.108-17.279,0-1.911,1.163-3.821,1.168-5.732h-4.971C267,214.695,266.218,217.316,264.648,222.622Z" transform="translate(-221.493 -209.497)"></path><path class="a" d="M354.385,222.13c-1.548-5.036-2.321-7.559-3.865-12.633H345.55c0,1.911,1.144,3.821,1.14,5.732-.013,5.712-1.178,11.425-1.191,17.137,1.686-.064,2.528-.092,4.214-.141.011-6.091.016-9.136.027-15.227,1.4,6.078,2.1,9.1,3.5,15.139.908-.02,1.362-.028,2.27-.043,1.417-6.079,2.124-9.106,3.535-15.154,0,6.043-.005,9.065-.008,15.109,1.686-.015,2.53-.019,4.216-.019,0-5.586-1.153-11.171-1.153-16.757,0-1.925,1.152-3.85,1.153-5.775H358.28C356.724,214.537,355.945,217.06,354.385,222.13Z" transform="translate(-290.107 -209.497)"></path><path class="a" d="M432.777,209.5c-.42,2.505.312,5.01-.109,7.515-.841,5.007-2.838,10.014-3.684,15.02,1.638.007,2.457.013,4.094.034.242-1.686.363-2.53.6-4.217,1.394.016,2.09.026,3.484.051l.614,4.25c1.638.037,2.456.06,4.093.111-.856-5.083-2.866-10.167-3.725-15.25-.423-2.505.306-5.01-.118-7.515Zm1.348,15.293c.514-4.034.771-6.052,1.285-10.093l1.307,10.125C435.68,224.806,435.162,224.8,434.125,224.79Z" transform="translate(-353.937 -209.497)"></path><path class="a" d="M547.59,209.5c-1.533,5.41-2.3,8.077-3.833,13.35-1.572-5.406-2.357-8.073-3.927-13.35H534.86c.006,1.925,1.164,3.85,1.17,5.775.018,5.843-1.117,11.687-1.1,17.53,1.684.1,2.527.149,4.21.262-.021-6.316-.032-9.474-.053-15.789q1.805,8.014,3.573,16.037c.906.067,1.359.1,2.265.174q1.752-7.983,3.46-15.975.029,8.133.058,16.267c1.681.146,2.522.222,4.2.384-.022-6.3-1.2-12.592-1.219-18.888-.007-1.925,1.139-3.85,1.132-5.775Z" transform="translate(-434.886 -209.497)"></path><path class="a" d="M624.455,209.5q.042,12.5.085,25c1.68.173,2.519.264,4.2.452q-.04-12.726-.079-25.452Z" transform="translate(-503.387 -209.497)"></path><path class="a" d="M654.416,209.5c-.359,2.505.433,5.01.071,7.515-.874,6.052-2.906,12.1-3.794,18.154,1.63.19,2.444.288,4.072.492.237-1.928.355-2.895.592-4.834,1.387.143,2.08.216,3.466.367.246,2.024.369,3.039.614,5.076,1.627.22,2.439.334,4.064.569-.9-6.611-2.977-13.219-3.914-19.825-.355-2.505.44-5.01.081-7.515Zm1.377,17.8c.505-4.658.758-7,1.264-11.718.527,4.748.791,7.137,1.317,11.946C657.341,227.436,656.825,227.391,655.792,227.3Z" transform="translate(-523.448 -209.497)"></path><path class="a" d="M716.971,229.167q.423-9.835.845-19.67h-4.284q.434,9.7.862,19.394C715.425,229,715.941,229.054,716.971,229.167Z" transform="translate(-571.492 -209.497)"></path><path class="a" d="M714.644,311.244l0,3.715c1.512.226,2.267.342,3.778.581,0-1.517,0-2.276,0-3.793C716.913,311.54,716.157,311.44,714.644,311.244Z" transform="translate(-572.342 -287.289)"></path></g><g transform="translate(136.234 245.386)"><path class="a" d="M220.674,362.587h.726v5.443h-.726Z" transform="translate(-220.674 -362.433)"></path><path class="a" d="M237.635,363.195H235.7v-.608h4.59v.608h-1.932v4.835h-.726Z" transform="translate(-232.165 -362.433)"></path><path class="a" d="M264.209,362.587h.472l2.34,5.443h-.744l-.653-1.524H263.23l-.653,1.524h-.707Zm1.17,3.329-.952-2.24-.953,2.24Z" transform="translate(-252.17 -362.433)"></path><path class="a" d="M295.625,362.587h.726v4.835h2.567v.608h-3.293Z" transform="translate(-277.979 -362.433)"></path><path class="a" d="M321.6,362.587h.726v5.443H321.6Z" transform="translate(-297.836 -362.433)"></path><path class="a" d="M338.889,362.587h.472l2.34,5.443h-.744l-.653-1.524H337.91l-.653,1.524h-.708Zm1.17,3.329-.952-2.24-.952,2.24Z" transform="translate(-309.268 -362.433)"></path><path class="a" d="M370.3,362.587h.417l3.238,4.055v-4.055h.662v5.443H374.2l-3.238-4.055v4.055H370.3Z" transform="translate(-335.075 -362.433)"></path><path class="a" d="M418.319,364.925a2.767,2.767,0,0,1,2.894-2.839,3.321,3.321,0,0,1,1.887.572v.753a2.716,2.716,0,0,0-1.887-.716,2.072,2.072,0,0,0-2.141,2.231,2.107,2.107,0,0,0,2.141,2.268,2.829,2.829,0,0,0,1.388-.317v-1.234h-1.115v-.608h1.841v2.2a5.01,5.01,0,0,1-2.114.571A2.8,2.8,0,0,1,418.319,364.925Z" transform="translate(-371.786 -362.05)"></path><path class="a" d="M452.575,364.808a2.889,2.889,0,1,1,2.894,2.875A2.793,2.793,0,0,1,452.575,364.808Zm5.025,0a2.14,2.14,0,1,0-2.132,2.268A2.12,2.12,0,0,0,457.6,364.808Z" transform="translate(-397.977 -361.932)"></path><path class="a" d="M490.109,365.517v-2.93h.744v2.939c0,1.406.635,2.023,1.633,2.023s1.633-.617,1.633-2.023v-2.939h.708v2.93c0,1.842-.952,2.667-2.359,2.667S490.109,367.358,490.109,365.517Z" transform="translate(-426.674 -362.433)"></path><path class="a" d="M526.483,367.077l-.717-1.3h-.789v2.25h-.726v-5.443h1.8a1.551,1.551,0,0,1,1.778,1.6,1.457,1.457,0,0,1-1.315,1.551l.653,1.107c.327.553.617.716,1.025.716a1.249,1.249,0,0,0,.308-.036v.508a1.938,1.938,0,0,1-.5.064A1.677,1.677,0,0,1,526.483,367.077Zm-.436-1.9a.991.991,0,1,0,0-1.977h-1.07v1.977Z" transform="translate(-452.777 -362.433)"></path><path class="a" d="M554.308,362.587h.707l2.1,4.517,2.1-4.517h.672v5.443h-.7v-3.71c0-.136.018-.445.018-.453-.018.027-.136.326-.19.453l-1.7,3.71h-.49l-1.7-3.71c-.064-.136-.182-.426-.19-.453,0,.009.018.317.018.453v3.71h-.662Z" transform="translate(-475.758 -362.433)"></path><path class="a" d="M592.149,362.587h3.293v.608h-2.567v1.66h2.114v.608h-2.114v1.959h2.567v.608h-3.293Z" transform="translate(-504.689 -362.433)"></path><path class="a" d="M619.283,363.195h-1.932v-.608h4.59v.608h-1.932v4.835h-.726Z" transform="translate(-523.958 -362.433)"></path></g><g transform="translate(257.966 209.497)"><g transform="translate(0 0)"><path class="a" d="M737.714,211.06a1.566,1.566,0,1,1,1.563,1.563A1.563,1.563,0,0,1,737.714,211.06Zm2.929,0a1.363,1.363,0,1,0-1.366,1.36A1.365,1.365,0,0,0,740.643,211.06Zm-1.221.483-.18-.334h-.159v.589h-.3v-1.5h.594a.442.442,0,0,1,.488.451.42.42,0,0,1-.334.435l.154.265a.267.267,0,0,0,.244.159.31.31,0,0,0,.1-.011v.186a.569.569,0,0,1-.186.032A.47.47,0,0,1,739.422,211.542Zm-.09-.552a.236.236,0,1,0,0-.472h-.249v.472Z" transform="translate(-737.714 -209.497)"></path></g></g></g></g></svg> 