<?xml version="1.0" encoding="UTF-8"?> <svg xmlns="http://www.w3.org/2000/svg" id="Livello_1" data-name="Livello 1" viewBox="0 0 150 70"><defs><style> .cls-1 { fill: #e4003a; } </style></defs><g><polygon class="cls-1" points="0.06 18.04 0.06 19.86 4.67 19.86 4.67 38.11 6.68 38.11 6.68 19.86 11.26 19.86 11.26 18.04 0.06 18.04 0.06 18.04"></polygon><path class="cls-1" d="M13.89,18.05v12.5a8,8,0,0,0,.68,3.63,4.5,4.5,0,0,0,4.15,2.47,4.5,4.5,0,0,0,4.15-2.47,8,8,0,0,0,.68-3.63V18.05h2v12.5a10.25,10.25,0,0,1-.76,4.17,6.48,6.48,0,0,1-6.08,3.74,6.46,6.46,0,0,1-6.07-3.74,10.09,10.09,0,0,1-.76-4.17V18.05Z"></path><polygon class="cls-1" points="32.4 19.86 27.79 19.86 27.79 18.04 38.99 18.04 38.99 19.86 34.41 19.86 34.41 38.11 32.4 38.11 32.4 19.86 32.4 19.86"></polygon><polygon class="cls-1" points="43.96 19.86 39.35 19.86 39.35 18.04 50.55 18.04 50.55 19.86 45.97 19.86 45.97 38.11 43.96 38.11 43.96 19.86 43.96 19.86"></polygon><path class="cls-1" d="M61.7,36.65a8.57,8.57,0,1,0-8.59-8.46,8.63,8.63,0,0,0,8.59,8.46m0-19A10.55,10.55,0,0,1,72.34,28.08a10.62,10.62,0,0,1-21.24.11,10.54,10.54,0,0,1,10.6-10.5"></path><polygon class="cls-1" points="75.17 18.05 85.39 18.05 85.39 21.52 78.88 21.52 78.88 26.43 85.09 26.43 85.09 29.9 78.88 29.9 78.88 38.11 75.17 38.11 75.17 18.05 75.17 18.05"></polygon><path class="cls-1" d="M97.93,35.05a7,7,0,1,0-6.78-6.94,6.89,6.89,0,0,0,6.78,6.94m0-17.41a10.44,10.44,0,1,1-10.5,10.49,10.46,10.46,0,0,1,10.5-10.49"></path><path class="cls-1" d="M120.72,35.05a7,7,0,1,0-6.78-6.94,6.89,6.89,0,0,0,6.78,6.94m0-17.41a10.44,10.44,0,1,1-10.5,10.49,10.47,10.47,0,0,1,10.5-10.49"></path><path class="cls-1" d="M137.55,34.64h.78a9.23,9.23,0,0,0,4.88-1,6.33,6.33,0,0,0,3-5.54,6.63,6.63,0,0,0-2.14-4.93c-1.54-1.41-3.5-1.68-5.83-1.68h-.7V34.64Zm-3.72-16.59h4.56c4.93,0,7.07,1.32,8.24,2.33a10.51,10.51,0,0,1,3.31,7.75,9.93,9.93,0,0,1-4.8,8.68,14.33,14.33,0,0,1-6.67,1.3h-4.64V18.05Z"></path><path class="cls-1" d="M84.71,43.34v8.37h1.43V41.42H84.07L80.67,50l-3.41-8.53H75.15V51.71h1.37V43.34l3.41,8.37h1.41l3.37-8.37Zm4.49-1.92H87.75V51.71H89.2V41.42Zm6,10.29V50.36h-3V41.42H90.81V51.71Zm8.49,0h1.53l-4-10.29H99.7L95.83,51.71h1.45l1.27-3.39h3.87l1.32,3.39Zm-3.28-8.43,1.47,3.79H99l1.44-3.79Zm12.28,8.43h1.47V41.42h-1.43v7.89l-5.23-7.89h-1.5V51.71h1.43V43.9l5.26,7.81Zm2.66-5.15a5.09,5.09,0,0,0,5.26,5.34,5.35,5.35,0,1,0-5.26-5.34m1.53,0a3.75,3.75,0,1,1,7.48,0,3.75,3.75,0,1,1-7.48,0"></path></g></svg> 