<?xml version="1.0" encoding="UTF-8"?> <svg xmlns="http://www.w3.org/2000/svg" xmlns:xlink="http://www.w3.org/1999/xlink" width="1920" height="1083" viewBox="0 0 1920 1083"><defs><style>.a{fill:#ffe4c7;}.b{clip-path:url(#a);}.c{fill:#f5dec4;}.d{opacity:0.399;}.e{fill:#f5cf89;}.f{fill:#e6ad5a;}.g{clip-path:url(#b);}.h{opacity:0.873;}.h,.k{mix-blend-mode:multiply;isolation:isolate;}.i{fill:#c4102b;}.j{fill:#fcc056;}.k{fill:#ec8e2d;}.l{fill:#b6c48e;}</style><clipPath id="a"><rect class="a" width="1920" height="1083" transform="translate(-9455 -11308)"></rect></clipPath><clipPath id="b"><rect class="a" width="1920" height="1176"></rect></clipPath></defs><g class="b" transform="translate(9455 11308)"><rect class="c" width="1920" height="1176" transform="translate(-9455.329 -11308)"></rect><g class="d" transform="translate(-9500 -11551.75)"><path class="e" d="M0,0H1920V1176H0Z" transform="translate(65.671 233.75)"></path><path class="f" d="M-9599.1-8099.039c135.164,328.136,175.143,467.863,503.939,564.058s691.035,78.362,1016.776,298.8,307.364,515.811,629.892,623.5-2118.939,48.147-2118.939,48.147Z" transform="matrix(0.998, 0.07, -0.07, 0.998, 8753.541, 8600.264)"></path></g><g class="g" transform="translate(-9455.329 -11308)"><g transform="translate(-66.03 301.211)"><g class="h" transform="matrix(-0.875, 0.485, -0.485, -0.875, 2474.396, 468.897)"><path class="i" d="M553.435,658.4a168.216,168.216,0,0,1-89.492,28.374l-149.864,3.7-149.863-3.7A168.216,168.216,0,0,1,74.723,658.4h0A168.354,168.354,0,0,1,.762,502.525l3.672-38.548A168.479,168.479,0,0,1,19.872,407.91L166.648,98.055A168.273,168.273,0,0,1,289.261,4.374L313.868,0l.21.142L314.289,0,338.9,4.374A168.273,168.273,0,0,1,461.51,98.055L608.286,407.91c7.432,18.7,11.9,36.04,15.438,56.067l3.672,38.548A168.355,168.355,0,0,1,553.435,658.4Z" transform="translate(0 0)"></path></g><g class="h" transform="matrix(-0.946, -0.326, 0.326, -0.946, 1700.894, 102.896)"><path class="j" d="M553.435,658.4a168.216,168.216,0,0,1-89.492,28.374l-149.864,3.7-149.863-3.7A168.216,168.216,0,0,1,74.723,658.4h0A168.354,168.354,0,0,1,.762,502.525l3.672-38.548A168.479,168.479,0,0,1,19.872,407.91L166.648,98.055A168.273,168.273,0,0,1,289.261,4.374L313.868,0l.21.142L314.289,0,338.9,4.374A168.273,168.273,0,0,1,461.51,98.055L608.286,407.91a169.033,169.033,0,0,1,15.438,56.067l3.672,38.548A168.355,168.355,0,0,1,553.435,658.4Z" transform="translate(0 0)"></path></g><circle class="k" cx="310" cy="310" r="310" transform="translate(-243.641 78.789)"></circle></g></g><path class="l" d="M-2.069,1218.915h.037c166.8,32,327.405-30.392,451.6-156.732,4.553-5.26,9.124-10.494,13.806-15.556-3.405-6.616-6.7-13.357-9.956-20.122C360.943,858.585,220.032,738.294,53.23,706.3c-173.465-33.282-340.212,35.5-466.3,172.115C-320.961,1056.9-175.515,1185.609-2.069,1218.915Z" transform="translate(-9995.375 -11868.318) rotate(-55)"></path></g></svg> 