<?xml version="1.0" encoding="UTF-8"?> <svg xmlns="http://www.w3.org/2000/svg" xmlns:xlink="http://www.w3.org/1999/xlink" width="1920" height="1020" viewBox="0 0 1920 1020"><defs><style>.a{fill:#fff;stroke:#707070;}.b{fill:#e57f2d;}.c{clip-path:url(#a);}.d{clip-path:url(#b);}.e{clip-path:url(#c);}</style><clipPath id="a"><rect class="a" width="1920" height="1020" transform="translate(-10408 -13356)"></rect></clipPath><clipPath id="b"><rect class="a" width="1920" height="1020" transform="translate(0 2099)"></rect></clipPath><clipPath id="c"><path class="b" d="M1482-55c-71.991,43.3-273.309,164.388-267,313,2.541,59.85,36.373,68.008,34,126-5.342,130.564-179.572,156.213-208,279-26.564,114.736,82.354,278.988,212,315,144.1,40.027,199.714-110.067,475-183,254.622-67.459,369.646,17.868,481-88,90.65-86.185,93.34-217.763,95-299,3.994-195.434-81.03-510.2-327-591C1794.486-242.952,1624.658-140.8,1482-55Z" transform="translate(101.021 2023.977)"></path></clipPath></defs><g class="c" transform="translate(10408 13356)"><g transform="translate(-10408 -15455)"><g class="e"><rect class="b" width="1919.95" height="1019.554" transform="translate(0 2098.954)"></rect></g></g></g></svg> 