<?xml version="1.0" encoding="UTF-8"?> <svg xmlns="http://www.w3.org/2000/svg" width="929.963" height="207.182" viewBox="0 0 929.963 207.182"><defs><style>.a{fill:#f9fbf1;}</style></defs><g transform="translate(-821.925 287.841)"><g transform="translate(970.944 -287.841)"><path class="a" d="M996.527-198.468a1.8,1.8,0,0,1-2.06-1.477l-9.618-58.38a1.8,1.8,0,0,1,1.477-2.061l8.846-1.457a1.8,1.8,0,0,1,2.061,1.477l7.723,46.881a.848.848,0,0,0,1.031.74l23.882-3.935a1.8,1.8,0,0,1,2.06,1.478l1.458,8.845a1.8,1.8,0,0,1-1.478,2.06Z" transform="translate(-984.825 285.628)"></path><path class="a" d="M1043.788-206.211c-1.156.149-1.848-.3-1.951-1.1a6.625,6.625,0,0,1,.127-1.824l8.1-59.8a1.707,1.707,0,0,1,1.518-1.552l11.915-1.537a1.705,1.705,0,0,1,1.862,1.114l22.928,55.8a6.676,6.676,0,0,1,.585,1.732c.1.8-.45,1.414-1.606,1.563l-9.335,1.2a1.706,1.706,0,0,1-1.862-1.115l-3.938-8.8c-.371-.766-.705-1.265-1.506-1.162l-13.516,1.744c-.8.1-1.009.583-1.161,1.507l-1.308,9.479a1.706,1.706,0,0,1-1.518,1.551Zm22.652-27.6c.534-.069.756-.459.585-1.07l-6.875-20.356c-.156-.521-.281-.777-.547-.742l-.356.045c-.267.036-.321.313-.341.858l-1.483,21.435c-.009.633.3.955.838.886Z" transform="translate(-989.681 286.495)"></path><path class="a" d="M1164.722-219.161a1.621,1.621,0,0,1-1.795-1.22l-18.444-57.1a6.69,6.69,0,0,1-.485-1.763c-.057-.805.531-1.386,1.693-1.469l9.836-.7a1.64,1.64,0,0,1,1.794,1.22l11.928,41.3c.115.351.312.607.671.581l.536-.038c.359-.026.517-.306.582-.671l5.867-42.568a1.641,1.641,0,0,1,1.6-1.462l9.836-.7c1.162-.082,1.826.41,1.884,1.214a6.7,6.7,0,0,1-.231,1.814l-10.17,59.14a1.621,1.621,0,0,1-1.6,1.463Z" transform="translate(-998.388 287.493)"></path><path class="a" d="M1208.549-221.934a1.8,1.8,0,0,1-1.874-1.709l-2.727-59.108a1.8,1.8,0,0,1,1.708-1.874l35.2-1.624a1.8,1.8,0,0,1,1.873,1.709l.413,8.956a1.8,1.8,0,0,1-1.709,1.874l-23.554,1.087a.847.847,0,0,0-.854.937l.5,10.747a.848.848,0,0,0,.938.854l22.837-1.054a1.8,1.8,0,0,1,1.873,1.708l.414,8.956a1.8,1.8,0,0,1-1.709,1.874l-22.838,1.054a.847.847,0,0,0-.854.937l.5,10.747a.847.847,0,0,0,.937.854l23.913-1.1a1.8,1.8,0,0,1,1.873,1.709l.413,8.956a1.8,1.8,0,0,1-1.709,1.873Z" transform="translate(-1003.497 287.706)"></path><path class="a" d="M1262.036-224.1a1.8,1.8,0,0,1-1.833-1.752L1258.867-285a1.8,1.8,0,0,1,1.752-1.832l19.718-.445c11.2-.253,18.995,7.193,19.247,18.4.158,6.992-2.683,12.257-8.963,16.075-.619.373-.97.74-.958,1.278a4.648,4.648,0,0,0,.487,1.692l9.714,21.122a3.95,3.95,0,0,1,.486,1.693,2.077,2.077,0,0,1-2.195,2.111l-8.961.2c-1.166.026-1.713-.319-2.278-1.562l-9.826-22.107a1.721,1.721,0,0,0-1.639-1.129l-2.331.052a.847.847,0,0,0-.875.917l.506,22.407A1.8,1.8,0,0,1,1271-224.3Zm18.42-38.078a6.027,6.027,0,0,0,6.133-6.416,6.026,6.026,0,0,0-6.416-6.132l-7.618.172a.847.847,0,0,0-.876.917l.243,10.755a.848.848,0,0,0,.917.876Z" transform="translate(-1008.177 287.794)"></path><path class="a" d="M1310.33-225.156c-1.164,0-1.79-.545-1.787-1.352a6.692,6.692,0,0,1,.366-1.791l15.924-58.2a1.705,1.705,0,0,1,1.709-1.338l12.012.048a1.706,1.706,0,0,1,1.7,1.351l15.362,58.33a6.655,6.655,0,0,1,.351,1.795c0,.807-.633,1.342-1.8,1.337l-9.412-.038a1.7,1.7,0,0,1-1.7-1.352l-2.743-9.244c-.265-.808-.532-1.347-1.338-1.35l-13.626-.055c-.808,0-1.079.444-1.351,1.339l-2.547,9.223a1.707,1.707,0,0,1-1.709,1.338Zm26.1-24.367c.538,0,.809-.356.722-.982l-4.129-21.083c-.087-.539-.177-.808-.445-.809l-.359,0c-.269,0-.36.267-.451.805l-4.3,21.049c-.092.627.175.986.713.989Z" transform="translate(-1012.41 287.841)"></path><path class="a" d="M1422.033-223.486a1.8,1.8,0,0,1-1.708-1.873l2.755-59.109a1.8,1.8,0,0,1,1.875-1.707l20.24.942c10.926.51,18.158,9.014,17.7,18.776a16.014,16.014,0,0,1-5.11,11.43,1,1,0,0,0-.075,1.612c3.729,2.776,4.929,7.859,4.724,12.246-.554,11.911-8.253,19.182-20.165,18.627Zm20.824-11.594c3.851.179,6.427-3.111,6.595-6.693.163-3.493-2.186-7.013-5.948-7.188l-8.6-.4a.848.848,0,0,0-.938.854l-.563,12.091a.847.847,0,0,0,.854.937Zm1.2-25.7a6.172,6.172,0,0,0,6.189-5.726,6.091,6.091,0,0,0-5.635-6.186l-8.6-.4a.848.848,0,0,0-.938.854l-.471,10.119a.847.847,0,0,0,.854.938Z" transform="translate(-1021.935 287.699)"></path><path class="a" d="M1474.363-231.816c-1.952-5.353-1.649-12.072-1.04-20.566s1.271-15.189,3.968-20.208c3.631-6.75,10.594-11.1,20.252-10.41s15.927,6,18.555,13.2c1.953,5.352,1.65,12.072,1.04,20.567s-1.271,15.188-3.967,20.208c-3.631,6.75-10.594,11.1-20.252,10.41S1476.992-224.616,1474.363-231.816ZM1502-234.865c1.349-2.509,1.946-9.567,2.357-15.29s.829-12.793-.147-15.47c-1.053-2.861-3.543-4.479-7.567-4.768s-6.719.956-8.171,3.638c-1.348,2.509-1.945,9.568-2.356,15.29s-.83,12.793.147,15.47c1.052,2.862,3.543,4.479,7.566,4.768S1500.544-232.182,1502-234.865Z" transform="translate(-1026.412 287.435)"></path><path class="a" d="M1527.5-216.9a1.8,1.8,0,0,1-1.608-1.96l5.832-58.878a1.8,1.8,0,0,1,1.96-1.607L1544.3-278.3a2.2,2.2,0,0,1,2.07,1.827l9.668,36.09c.124.553.767.437.82-.1l3.41-34.434a1.8,1.8,0,0,1,1.96-1.607l8.921.884a1.8,1.8,0,0,1,1.608,1.96l-5.832,58.878a1.8,1.8,0,0,1-1.96,1.607l-10.527-1.043a2.323,2.323,0,0,1-2.259-1.755l-9.835-33.494c-.125-.553-.767-.437-.821.1l-3.145,31.759a1.8,1.8,0,0,1-1.961,1.607Z" transform="translate(-1030.93 287.118)"></path><path class="a" d="M1595.239-209.637a1.8,1.8,0,0,1-1.547-2.009l6.111-47.118a.846.846,0,0,0-.774-1l-13.779-1.787a1.8,1.8,0,0,1-1.548-2.009l1.154-8.89a1.8,1.8,0,0,1,2.008-1.548l41.784,5.419a1.8,1.8,0,0,1,1.548,2.009l-1.153,8.89a1.8,1.8,0,0,1-2.01,1.547l-13.778-1.787a.848.848,0,0,0-1.005.774l-6.111,47.118a1.8,1.8,0,0,1-2.008,1.548Z" transform="translate(-1035.856 286.663)"></path><path class="a" d="M1630.072-204.7c-1.15-.19-1.681-.823-1.55-1.619a6.668,6.668,0,0,1,.647-1.711l25-54.924a1.7,1.7,0,0,1,1.9-1.049l11.851,1.963a1.706,1.706,0,0,1,1.462,1.6l5.871,60.035a6.706,6.706,0,0,1,.06,1.828c-.133.8-.839,1.224-1.989,1.034l-9.286-1.537a1.708,1.708,0,0,1-1.461-1.605l-1.234-9.563c-.133-.84-.31-1.414-1.106-1.547l-13.444-2.225c-.8-.133-1.134.266-1.546,1.107l-3.985,8.7a1.707,1.707,0,0,1-1.9,1.049Zm29.646-19.9c.531.088.854-.221.868-.855l-.715-21.472c0-.546-.046-.825-.311-.869l-.354-.059c-.265-.043-.4.208-.573.723l-7.6,20.1c-.191.6.016,1,.546,1.09Z" transform="translate(-1039.675 285.812)"></path></g><g transform="translate(821.925 -207.678)"><path class="a" d="M830.807-85.943l-.6-1.689a1.8,1.8,0,0,1,1.084-2.292l8.948-3.2a1.8,1.8,0,0,1,2.292,1.085l.6,1.688c1.449,4.053,5.739,5.661,10.634,3.91,5.066-1.812,7.482-5.437,6.214-8.983-1.419-3.967-3.633-5.366-15.55-4.342-11.633,1.019-18.342-3.628-21.512-12.492-3.291-9.2,1.68-19.264,13.668-23.551s21.652.635,25.335,10.934l.151.423a1.8,1.8,0,0,1-1.085,2.292l-8.526,3.049a1.8,1.8,0,0,1-2.292-1.085l-.151-.422c-1.3-3.63-5.19-5.19-9.326-3.71-4.728,1.69-6.619,4.653-5.382,8.114,1.087,3.039,3.922,4.31,14.621,3.34,12.369-1.09,18.758,3.194,21.988,12.227,3.956,11.06-1.606,21.334-14.016,25.771C845.746-70.529,834.7-75.053,830.807-85.943Z" transform="translate(-821.925 194.855)"></path><path class="a" d="M882.877-104.416l-10.91-40.7a1.8,1.8,0,0,1,1.267-2.2l8.746-2.345a1.8,1.8,0,0,1,2.2,1.268l10.911,40.7c1.021,3.81,4.778,6.052,9.627,4.751,5.023-1.347,7.155-5.166,6.134-8.976l-10.91-40.7a1.8,1.8,0,0,1,1.268-2.2l8.746-2.345a1.8,1.8,0,0,1,2.2,1.267l10.911,40.7c3.041,11.344-4.246,21.559-15.071,24.46C897.337-87.872,885.918-93.072,882.877-104.416Z" transform="translate(-826.184 196.547)"></path><path class="a" d="M944.141-100a1.8,1.8,0,0,1-2.122-1.389l-12.105-57.92a1.8,1.8,0,0,1,1.389-2.122l8.776-1.834a1.8,1.8,0,0,1,2.121,1.389l9.721,46.512a.847.847,0,0,0,1.061.693l23.694-4.953a1.8,1.8,0,0,1,2.121,1.389l1.834,8.776a1.8,1.8,0,0,1-1.388,2.121Z" transform="translate(-831.124 197.065)"></path><path class="a" d="M996.527-110.468a1.8,1.8,0,0,1-2.06-1.477l-9.618-58.38a1.8,1.8,0,0,1,1.477-2.061l8.846-1.457a1.8,1.8,0,0,1,2.061,1.477l7.723,46.881a.848.848,0,0,0,1.031.74l23.882-3.935a1.8,1.8,0,0,1,2.06,1.478l1.458,8.845a1.8,1.8,0,0,1-1.478,2.06Z" transform="translate(-835.806 197.966)"></path><path class="a" d="M1043.788-118.211c-1.156.149-1.848-.3-1.951-1.1a6.625,6.625,0,0,1,.127-1.824l8.1-59.8a1.707,1.707,0,0,1,1.518-1.552l11.915-1.537a1.705,1.705,0,0,1,1.862,1.114l22.928,55.8a6.676,6.676,0,0,1,.585,1.732c.1.8-.45,1.414-1.606,1.563l-9.335,1.2a1.706,1.706,0,0,1-1.862-1.115l-3.938-8.8c-.371-.766-.705-1.265-1.506-1.162l-13.516,1.744c-.8.1-1.009.583-1.161,1.507l-1.308,9.479a1.706,1.706,0,0,1-1.518,1.551Zm22.652-27.6c.534-.069.756-.459.585-1.07l-6.875-20.356c-.156-.521-.281-.777-.547-.742l-.356.045c-.267.036-.321.313-.341.858l-1.483,21.435c-.009.633.3.955.838.886Z" transform="translate(-840.662 198.833)"></path><path class="a" d="M1164.722-131.161a1.621,1.621,0,0,1-1.795-1.22l-18.444-57.1a6.689,6.689,0,0,1-.485-1.763c-.057-.805.531-1.386,1.693-1.469l9.836-.7a1.64,1.64,0,0,1,1.794,1.22l11.928,41.3c.115.351.312.607.671.581l.536-.038c.359-.026.517-.306.582-.671l5.867-42.568a1.641,1.641,0,0,1,1.6-1.462l9.836-.7c1.162-.082,1.826.41,1.884,1.214a6.7,6.7,0,0,1-.231,1.814l-10.17,59.14a1.621,1.621,0,0,1-1.6,1.463Z" transform="translate(-849.37 199.831)"></path><path class="a" d="M1205.343-144.753c-2.569-5.086-3.058-11.8-3.451-20.3s-.523-15.233,1.566-20.535c2.812-7.13,9.215-12.272,18.888-12.718s16.524,4.085,19.98,10.925c2.569,5.086,3.057,11.8,3.451,20.3s.522,15.233-1.566,20.535c-2.812,7.13-9.216,12.272-18.889,12.719S1208.8-137.911,1205.343-144.753Zm27.083-6.275c1.045-2.652.808-9.731.543-15.462s-.681-12.8-1.965-15.346c-1.381-2.719-4.045-4.031-8.076-3.846s-6.561,1.738-7.686,4.573c-1.045,2.651-.808,9.73-.543,15.461s.68,12.8,1.965,15.347c1.381,2.718,4.044,4.031,8.075,3.845S1231.3-148.193,1232.426-151.027Z" transform="translate(-854.283 200.051)"></path><path class="a" d="M1256.576-154.708l-.04-1.793a1.8,1.8,0,0,1,1.752-1.833l9.5-.214a1.8,1.8,0,0,1,1.833,1.752l.04,1.793c.1,4.3,3.659,7.181,8.857,7.064,5.378-.122,8.815-2.8,8.73-6.564-.094-4.213-1.755-6.237-13.385-9.023-11.36-2.7-16.26-9.228-16.473-18.639-.221-9.77,7.67-17.75,20.4-18.037s20.344,7.432,20.591,18.366l.01.448a1.8,1.8,0,0,1-1.752,1.833l-9.052.2a1.8,1.8,0,0,1-1.833-1.752l-.01-.447c-.088-3.855-3.288-6.563-7.68-6.463-5.019.113-7.748,2.327-7.666,6,.074,3.226,2.363,5.327,12.82,7.78,12.081,2.866,16.793,8.948,17.009,18.537.265,11.741-8.253,19.735-21.428,20.034C1265.891-135.369,1256.837-143.146,1256.576-154.708Z" transform="translate(-858.96 200.211)"></path><path class="a" d="M1327.913-137.091a1.8,1.8,0,0,1-1.786-1.8l.193-47.51a.847.847,0,0,0-.893-.9l-13.895-.056a1.8,1.8,0,0,1-1.786-1.8l.037-8.965a1.8,1.8,0,0,1,1.8-1.786l42.132.171a1.8,1.8,0,0,1,1.785,1.8l-.036,8.964a1.8,1.8,0,0,1-1.8,1.786l-13.895-.056a.846.846,0,0,0-.9.892l-.192,47.51a1.8,1.8,0,0,1-1.8,1.786Z" transform="translate(-863.494 200.185)"></path><path class="a" d="M1369.207-136.874a1.8,1.8,0,0,1-1.751-1.834l1.363-59.155a1.8,1.8,0,0,1,1.834-1.751l19.718.454c11.2.259,18.646,8.053,18.387,19.256-.16,6.991-3.238,12.121-9.686,15.649-.637.344-1,.694-1.015,1.232a4.623,4.623,0,0,0,.408,1.713l8.741,21.544a3.966,3.966,0,0,1,.409,1.713,2.079,2.079,0,0,1-2.289,2.01l-8.962-.208c-1.166-.027-1.7-.4-2.2-1.664l-8.807-22.533a1.724,1.724,0,0,0-1.586-1.2l-2.331-.054a.846.846,0,0,0-.917.875L1380-138.42a1.8,1.8,0,0,1-1.834,1.752Zm20.138-37.2a6.026,6.026,0,0,0,6.418-6.13,6.026,6.026,0,0,0-6.13-6.418l-7.617-.176a.848.848,0,0,0-.917.876l-.247,10.754a.846.846,0,0,0,.875.917Z" transform="translate(-868.411 200.16)"></path><path class="a" d="M1417.332-135.635c-1.165-.055-1.766-.621-1.728-1.427a6.614,6.614,0,0,1,.441-1.774l18.385-57.483a1.7,1.7,0,0,1,1.764-1.263l12,.559a1.705,1.705,0,0,1,1.638,1.422l12.871,58.94a6.692,6.692,0,0,1,.275,1.807c-.037.807-.69,1.315-1.854,1.261l-9.4-.438a1.706,1.706,0,0,1-1.639-1.423l-2.347-9.355c-.23-.818-.474-1.369-1.28-1.406l-13.613-.634c-.807-.038-1.1.4-1.406,1.281l-2.937,9.108a1.708,1.708,0,0,1-1.765,1.264Zm27.111-23.239c.538.026.822-.32.763-.952l-3.228-21.241c-.065-.542-.143-.815-.411-.828l-.358-.016c-.269-.013-.371.252-.486.785l-5.19,20.85c-.119.623.133.993.67,1.019Z" transform="translate(-872.514 199.987)"></path><path class="a" d="M1542.021-127.511a1.8,1.8,0,0,1-1.607-1.961l4.683-47.28a.848.848,0,0,0-.8-.981l-13.827-1.369a1.8,1.8,0,0,1-1.607-1.961l.884-8.92a1.8,1.8,0,0,1,1.961-1.608l41.928,4.153a1.8,1.8,0,0,1,1.607,1.961l-.884,8.921a1.8,1.8,0,0,1-1.961,1.607l-13.827-1.37a.848.848,0,0,0-.981.8l-4.683,47.281a1.8,1.8,0,0,1-1.961,1.607Z" transform="translate(-882.164 199.477)"></path><path class="a" d="M1577.213-123.705c-1.154-.15-1.708-.764-1.6-1.564A6.652,6.652,0,0,1,1576.2-127l23.052-55.769a1.706,1.706,0,0,1,1.863-1.114l11.913,1.545a1.706,1.706,0,0,1,1.516,1.552l7.975,59.792a6.76,6.76,0,0,1,.125,1.824c-.105.8-.8,1.252-1.951,1.1l-9.335-1.21a1.706,1.706,0,0,1-1.517-1.552l-1.567-9.514c-.164-.835-.361-1.4-1.162-1.507l-13.512-1.753c-.8-.1-1.125.306-1.507,1.161l-3.677,8.834a1.707,1.707,0,0,1-1.862,1.114Zm28.929-20.927c.533.07.847-.252.839-.885l-1.469-21.434c-.02-.545-.074-.822-.34-.858l-.356-.046c-.267-.034-.391.22-.549.742l-6.887,20.35c-.169.611.051,1,.584,1.07Z" transform="translate(-886.148 198.821)"></path><path class="a" d="M1645.98-114.463a1.621,1.621,0,0,1-1.461-1.605l-4.632-59.829a6.643,6.643,0,0,1-.061-1.828c.132-.8.838-1.224,1.988-1.034l9.729,1.611a1.642,1.642,0,0,1,1.461,1.6l1.977,42.944c.03.368.163.663.517.721l.531.089c.354.058.574-.177.721-.518l15.624-40.028a1.641,1.641,0,0,1,1.9-1.049l9.729,1.611c1.15.19,1.681.823,1.55,1.619a6.729,6.729,0,0,1-.648,1.712L1661.234-113.3a1.621,1.621,0,0,1-1.9,1.048Z" transform="translate(-891.618 198.386)"></path><path class="a" d="M1687.781-118.042c-1.212-5.567-.006-12.183,1.745-20.517s3.309-14.878,6.658-19.487c4.507-6.2,11.995-9.572,21.469-7.582s14.972,8.09,16.605,15.578c1.212,5.567.006,12.184-1.745,20.519s-3.308,14.876-6.658,19.487c-4.507,6.2-11.994,9.571-21.469,7.582S1689.414-110.553,1687.781-118.042Zm27.789.708c1.675-2.305,3.218-9.216,4.4-14.831s2.547-12.564,1.941-15.347c-.657-2.978-2.906-4.916-6.854-5.746s-6.787.04-8.586,2.5c-1.675,2.3-3.218,9.216-4.4,14.831s-2.547,12.564-1.941,15.347c.658,2.978,2.907,4.915,6.854,5.744S1713.771-114.873,1715.571-117.334Z" transform="translate(-895.666 197.312)"></path><path class="a" d="M1740.543-95.467a1.8,1.8,0,0,1-1.265-2.2l15.394-57.127a1.8,1.8,0,0,1,2.2-1.265l8.656,2.333a1.8,1.8,0,0,1,1.264,2.2l-12.362,45.876a.846.846,0,0,0,.632,1.1l23.37,6.3a1.8,1.8,0,0,1,1.265,2.2l-2.333,8.657a1.8,1.8,0,0,1-2.2,1.264Z" transform="translate(-900.09 196.453)"></path><path class="a" d="M1785.134-82.788c-1.1-.4-1.506-1.114-1.232-1.873a6.676,6.676,0,0,1,.944-1.566l34.5-49.516a1.708,1.708,0,0,1,2.058-.689l11.3,4.068a1.708,1.708,0,0,1,1.148,1.842l-5.058,60.112a6.636,6.636,0,0,1-.269,1.809c-.273.759-1.047,1.053-2.142.658l-8.857-3.187a1.707,1.707,0,0,1-1.148-1.842l.513-9.629c.019-.851-.051-1.448-.81-1.722l-12.822-4.614c-.759-.274-1.164.058-1.72.81l-5.489,7.838a1.706,1.706,0,0,1-2.058.689Zm32.75-14.224c.505.182.88-.064,1.008-.685l3.17-21.25c.1-.537.1-.82-.148-.911l-.338-.122c-.253-.091-.428.132-.694.608l-11.1,18.4c-.3.56-.165.988.341,1.17Z" transform="translate(-903.891 194.785)"></path></g><path class="a" d="M1671.294-267.478l-7.661-1.217-9.5-12.909,11.789,1.873Z" transform="translate(-70.915 -1.531)"></path></g></svg> 